<?xml version="1.0" encoding="UTF-8"?>
<svg version="1.1" xmlns="http://www.w3.org/2000/svg" width="482" height="213">
<path d="M0 0 C159.06 0 318.12 0 482 0 C482 70.29 482 140.58 482 213 C322.94 213 163.88 213 0 213 C0 142.71 0 72.42 0 0 Z " fill="#18181B" transform="translate(0,0)"/>
<path d="M0 0 C1.32 0 2.64 0 4 0 C2.125 4.75 2.125 4.75 1 7 C6.28 7 11.56 7 17 7 C16.0179171 11.91041451 14.37507516 15.09328788 11.8125 19.25 C6.75396543 27.64104035 1.95834756 36.16368914 -2.79199219 44.73242188 C-5.50313347 49.60561254 -8.23826136 54.44793555 -11.15234375 59.203125 C-11.62607422 59.97978516 -12.09980469 60.75644531 -12.58789062 61.55664062 C-13.46048618 62.97476626 -14.34516074 64.38556077 -15.24414062 65.78710938 C-17.46901276 69.3513241 -17.46901276 69.3513241 -17.79394531 73.43212891 C-16.90449273 76.30890081 -15.75208998 78.05112515 -13.89453125 80.4140625 C-13.24790527 81.24760254 -12.6012793 82.08114258 -11.93505859 82.93994141 C-10.88439209 84.26904541 -10.88439209 84.26904541 -9.8125 85.625 C-8.34115463 87.5198298 -6.87112737 89.41568376 -5.40234375 91.3125 C-4.66097168 92.26640625 -3.91959961 93.2203125 -3.15576172 94.203125 C0.0005757 98.29814216 3.06969113 102.45433041 6.125 106.625 C6.68646729 107.38973633 7.24793457 108.15447266 7.82641602 108.94238281 C8.9643153 110.4930415 10.10160245 112.04414957 11.23828125 113.59570312 C14.36223967 117.85910979 17.4931335 122.11740103 20.625 126.375 C21.20523926 127.16600098 21.78547852 127.95700195 22.38330078 128.77197266 C23.20290283 129.88644775 23.20290283 129.88644775 24.0390625 131.0234375 C24.54856445 131.71663086 25.05806641 132.40982422 25.58300781 133.12402344 C26.80354359 134.73990851 28.0949515 136.3018153 29.3984375 137.8515625 C31 140 31 140 31 143 C-7.04877877 145.83566285 -7.04877877 145.83566285 -16.16650391 141.49121094 C-20.57168292 137.66238342 -22.75097357 132.87002373 -24.87353516 127.52001953 C-26.81121719 123.18522241 -29.76140226 119.64457254 -32.6875 115.9375 C-33.67084265 114.61348154 -34.6539401 113.28928091 -35.63671875 111.96484375 C-37.6670927 108.99117676 -37.6670927 108.99117676 -40 108 C-40.259021 108.85682373 -40.51804199 109.71364746 -40.78491211 110.59643555 C-42.045757 114.12816925 -43.61164229 117.185825 -45.44140625 120.45703125 C-45.76914536 121.0454631 -46.09688446 121.63389496 -46.43455505 122.24015808 C-47.12219065 123.47255978 -47.81225344 124.70361007 -48.50463867 125.93334961 C-49.56770883 127.8217528 -50.62332004 129.71417432 -51.67773438 131.60742188 C-56.83607331 140.83607331 -56.83607331 140.83607331 -58 142 C-60.86267567 142.07325168 -63.700719 142.09238205 -66.5625 142.0625 C-67.36880859 142.05798828 -68.17511719 142.05347656 -69.00585938 142.04882812 C-71.00393756 142.03700518 -73.00197783 142.01906914 -75 142 C-75.30164063 142.76699219 -75.60328125 143.53398437 -75.9140625 144.32421875 C-77.05873682 147.14472921 -78.18160571 149.55216153 -80 152 C-81.32 152 -82.64 152 -84 152 C-82.62411965 148.29570676 -81.08109119 145.46848532 -79 142 C-83.95 142 -88.9 142 -94 142 C-93.13036082 138.52144327 -92.20150507 136.26221899 -90.515625 133.16796875 C-89.9987915 132.2155127 -89.48195801 131.26305664 -88.94946289 130.28173828 C-88.38864014 129.26063965 -87.82781738 128.23954102 -87.25 127.1875 C-86.38459595 125.60171143 -86.38459595 125.60171143 -85.50170898 123.98388672 C-80.40163358 114.66794239 -75.21359262 105.40142351 -69.97265625 96.1640625 C-69.48941895 95.30973633 -69.00618164 94.45541016 -68.50830078 93.57519531 C-67.46291237 91.79035281 -66.37454657 90.03025867 -65.25341797 88.29199219 C-64.69412598 87.41961914 -64.13483398 86.54724609 -63.55859375 85.6484375 C-62.78793579 84.48707275 -62.78793579 84.48707275 -62.00170898 83.30224609 C-60.73456895 80.38995495 -61.01984552 78.9840191 -62 76 C-63.50063496 73.82335084 -65.00508949 71.83755313 -66.6875 69.8125 C-67.69088278 68.57094134 -68.69344653 67.32872046 -69.6953125 66.0859375 C-70.2305957 65.4269043 -70.76587891 64.76787109 -71.31738281 64.08886719 C-74.28099943 60.40971689 -77.16834292 56.67136136 -80.0625 52.9375 C-81.2512779 51.40623123 -82.44007964 49.87498096 -83.62890625 48.34375 C-84.48379639 47.24160156 -84.48379639 47.24160156 -85.35595703 46.1171875 C-86.86838851 44.16948839 -88.38484455 42.22500115 -89.90234375 40.28125 C-90.76840197 39.16680093 -91.63429908 38.05222664 -92.5 36.9375 C-93.2321875 35.99777344 -93.964375 35.05804688 -94.71875 34.08984375 C-97.62492469 30.15356948 -100.31719195 26.09060136 -103 22 C-97.04130482 21.7265952 -91.08630796 21.52782604 -85.12280273 21.39575195 C-83.09806698 21.34067139 -81.0737641 21.26577608 -79.05053711 21.17016602 C-62.25243403 20.3966508 -62.25243403 20.3966508 -56.79077148 24.28442383 C-54.50698962 27.07902981 -52.74030399 29.84496189 -51 33 C-50.08346453 34.16323191 -49.13975572 35.30645187 -48.15234375 36.41015625 C-47.42144531 37.28542969 -46.69054687 38.16070312 -45.9375 39.0625 C-45.18339844 39.96097656 -44.42929687 40.85945313 -43.65234375 41.78515625 C-42 44 -42 44 -42 46 C-41.34 46 -40.68 46 -40 46 C-39.73356689 45.12384033 -39.46713379 44.24768066 -39.19262695 43.3449707 C-38.03839366 40.10768301 -36.66889639 37.42995884 -34.91796875 34.48046875 C-34.31533203 33.45759766 -33.71269531 32.43472656 -33.09179688 31.38085938 C-32.46337891 30.32705078 -31.83496094 29.27324219 -31.1875 28.1875 C-29.9509569 26.09816855 -28.71526611 24.00833241 -27.48046875 21.91796875 C-26.88081299 20.91983154 -26.28115723 19.92169434 -25.66333008 18.89331055 C-23.98586403 16.06429528 -23.98586403 16.06429528 -22.7019043 13.25708008 C-21.60858037 10.96012588 -20.61707211 8.96398928 -19 7 C-15.37109375 6.11328125 -15.37109375 6.11328125 -11.4375 6.3125 C-7.5595733 6.60544859 -7.5595733 6.60544859 -4 6 C-1.76338207 3.04900282 -1.76338207 3.04900282 0 0 Z " fill="#117904" transform="translate(416,31)"/>
<path d="M0 0 C4.90300788 3.67148313 8.55755936 7.69472311 11.8125 12.875 C12.46412109 13.91140625 12.46412109 13.91140625 13.12890625 14.96875 C16.05711765 20.76395585 16.18991925 26.56952412 16.25 32.9375 C16.26023193 33.77643799 16.27046387 34.61537598 16.28100586 35.47973633 C16.132765 46.06496297 12.35472808 54.59619439 5.5 62.5625 C-4.7246891 71.3604883 -15.7363641 74.86324672 -29.1875 73.875 C-37.05352284 72.50800339 -40.38673981 69.97557014 -47.1875 64.875 C-47.5175 76.755 -47.8475 88.635 -48.1875 100.875 C-54.1275 100.875 -60.0675 100.875 -66.1875 100.875 C-66.1875 65.895 -66.1875 30.915 -66.1875 -5.125 C-60.5775 -5.125 -54.9675 -5.125 -49.1875 -5.125 C-48.8575 -2.485 -48.5275 0.155 -48.1875 2.875 C-47.7028125 2.47667969 -47.218125 2.07835938 -46.71875 1.66796875 C-33.13130157 -9.07134145 -14.5725617 -9.40235643 0 0 Z " fill="#E98C35" transform="translate(293.1875,90.125)"/>
<path d="M0 0 C6.33463688 4.80639115 10.38278071 11.20429429 12 19 C12.08578709 20.83269347 12.11773341 22.66823432 12.11352539 24.50292969 C12.11341209 26.15418854 12.11341209 26.15418854 12.11329651 27.83880615 C12.10813522 29.02121887 12.10297394 30.20363159 12.09765625 31.421875 C12.0962413 32.63699768 12.09482635 33.85212036 12.09336853 35.10406494 C12.08776988 38.98606831 12.0752176 42.86801406 12.0625 46.75 C12.05748483 49.38150958 12.05292195 52.01302007 12.04882812 54.64453125 C12.03780088 61.09637638 12.02053714 67.54817842 12 74 C6.39 74 0.78 74 -5 74 C-5.495 70.04 -5.495 70.04 -6 66 C-6.763125 66.7425 -7.52625 67.485 -8.3125 68.25 C-15.68030555 74.27820454 -24.25732553 75.68869686 -33.56640625 75.3828125 C-41.83227976 74.46124754 -49.61764654 71.56705626 -55 65 C-58.84182202 59.04288906 -60.09755604 53.00399166 -59 46 C-57.1218653 39.74325542 -53.40632555 35.52618256 -48 32 C-39.29108135 27.58667097 -30.88957475 27.5070492 -21.3125 27.75 C-19.91734367 27.77011855 -18.52215896 27.78835975 -17.12695312 27.8046875 C-13.75055933 27.85141959 -10.37566194 27.91692645 -7 28 C-7.12468365 26.55916928 -7.25944337 25.11920818 -7.3984375 23.6796875 C-7.47239746 22.87772949 -7.54635742 22.07577148 -7.62255859 21.24951172 C-8.19130628 17.85983437 -9.46050328 16.27218128 -12 14 C-18.63064152 9.72691991 -26.36198396 10.27070278 -34 11 C-37.85636913 11.98964654 -41.37880027 13.36269187 -45 15 C-46.66441908 15.6722584 -48.33048052 16.3405101 -50 17 C-51.035969 15.42652824 -52.05331732 13.84078454 -53.0625 12.25 C-53.63097656 11.36828125 -54.19945312 10.4865625 -54.78515625 9.578125 C-56 7 -56 7 -55.859375 4.796875 C-54.30000821 1.53638081 -51.13408039 0.42958053 -48 -1 C-46.86691406 -1.56460938 -46.86691406 -1.56460938 -45.7109375 -2.140625 C-32.49846178 -7.67505436 -12.14360173 -8.24848419 0 0 Z " fill="#E78B35" transform="translate(191,89)"/>
<path d="M0 0 C2.08466967 1.60005708 4.03971284 3.24605886 6 5 C5.48223379 9.10447392 3.35372556 10.95699523 0.4375 13.75 C-0.38878906 14.54921875 -1.21507813 15.3484375 -2.06640625 16.171875 C-2.70449219 16.77515625 -3.34257813 17.3784375 -4 18 C-8.40659086 16.38915483 -11.82808463 14.1516389 -15.62109375 11.4375 C-23.67186375 6.57266689 -33.8964424 6.82460396 -43 8 C-51.25681061 10.660144 -58.76765595 15.26765448 -63.1875 22.875 C-63.67605469 23.69742188 -64.16460937 24.51984375 -64.66796875 25.3671875 C-69.196313 34.31763919 -69.43310848 44.71776206 -66.875 54.375 C-63.87444098 62.77656524 -58.86788619 69.62895211 -51 74 C-44.94765452 76.70217138 -39.85590607 77.58025611 -33.25 77.5625 C-32.37400146 77.5615332 -31.49800293 77.56056641 -30.59545898 77.55957031 C-20.50765373 77.28780731 -13.66580073 73.30817234 -6 67 C-2.65179102 68.46625856 -0.30733641 70.33658447 2.3125 72.875 C3.03050781 73.55304688 3.74851562 74.23109375 4.48828125 74.9296875 C6 77 6 77 6.02734375 79.01171875 C1.66660148 87.45133022 -10.56232048 91.30318336 -19 94 C-23.99469675 95.46219846 -29.02153301 95.22395858 -34.1875 95.25 C-35.19103516 95.270625 -36.19457031 95.29125 -37.22851562 95.3125 C-43.73723095 95.3463775 -48.9988406 94.52044218 -55 92 C-56.051875 91.56300781 -57.10375 91.12601562 -58.1875 90.67578125 C-71.76809985 84.09296271 -80.88614017 74.49515304 -86.2734375 60.32421875 C-90.10490037 48.06765741 -89.9044337 32.34290367 -84.4765625 20.68359375 C-83.98929688 19.79800781 -83.50203125 18.91242188 -83 18 C-82.55398437 17.18660156 -82.10796875 16.37320313 -81.6484375 15.53515625 C-80.22865014 13.21511265 -78.70165343 11.1211855 -77 9 C-76.39929688 8.25105469 -75.79859375 7.50210938 -75.1796875 6.73046875 C-70.71863467 1.75206948 -65.90355893 -1.45135756 -60 -4.4375 C-59.34789551 -4.76758057 -58.69579102 -5.09766113 -58.02392578 -5.43774414 C-39.40985324 -14.29529945 -16.63957569 -11.72265603 0 0 Z " fill="#E88B35" transform="translate(115,69)"/>
<path d="M0 0 C1.32 0 2.64 0 4 0 C2.125 4.75 2.125 4.75 1 7 C6.28 7 11.56 7 17 7 C16.01800402 11.90997989 14.37574347 15.09383392 11.8125 19.25 C8.56182436 24.62555779 5.40147838 30.03605937 2.36328125 35.53515625 C1.74412842 36.65567383 1.12497559 37.77619141 0.48706055 38.93066406 C-0.73916828 41.15771555 -1.96049212 43.38747591 -3.17651367 45.62011719 C-3.74474854 46.64911133 -4.3129834 47.67810547 -4.8984375 48.73828125 C-5.40036621 49.65649658 -5.90229492 50.57471191 -6.41943359 51.52075195 C-8.04084381 54.06406686 -9.84556349 55.90439972 -12 58 C-13.20232883 59.70214395 -13.20232883 59.70214395 -14.140625 61.453125 C-14.48867188 62.071875 -14.83671875 62.690625 -15.1953125 63.328125 C-15.54335938 63.96234375 -15.89140625 64.5965625 -16.25 65.25 C-16.61351562 65.8996875 -16.97703125 66.549375 -17.3515625 67.21875 C-18.24033459 68.80918426 -19.12099936 70.40414448 -20 72 C-23.90869035 68.25446732 -27.26156562 64.28526293 -30.5625 60 C-31.50112856 58.79153187 -32.43992768 57.5831962 -33.37890625 56.375 C-33.81992676 55.79621094 -34.26094727 55.21742187 -34.71533203 54.62109375 C-35.86981894 53.16427256 -37.13102836 51.79356975 -38.40234375 50.4375 C-40 48 -40 48 -39.80004883 45.2199707 C-38.92628136 41.70330328 -37.63854944 39.15901165 -35.796875 36.04296875 C-35.14589844 34.92986328 -34.49492187 33.81675781 -33.82421875 32.66992188 C-33.13313579 31.50892209 -32.44172766 30.34811579 -31.75 29.1875 C-30.41088713 26.91049208 -29.07233465 24.63315449 -27.734375 22.35546875 C-27.08718506 21.27483154 -26.43999512 20.19419434 -25.77319336 19.08081055 C-23.99611547 16.0863481 -23.99611547 16.0863481 -22.66625977 13.19458008 C-21.58296839 10.91775981 -20.60924667 8.94084357 -19 7 C-15.37109375 6.11328125 -15.37109375 6.11328125 -11.4375 6.3125 C-7.5595733 6.60544859 -7.5595733 6.60544859 -4 6 C-1.76338207 3.04900282 -1.76338207 3.04900282 0 0 Z " fill="#0DB506" transform="translate(416,31)"/>
<path d="M0 0 C3.57011637 3.44374057 6.67026744 6.98268113 9.6875 10.9375 C10.31954346 11.76544067 10.31954346 11.76544067 10.96435547 12.61010742 C15.78723469 18.9689979 20.40334362 25.47665998 25 32 C24.505 32.99 24.505 32.99 24 34 C22.68 33.01 21.36 32.02 20 31 C19.740979 31.85682373 19.48195801 32.71364746 19.21508789 33.59643555 C17.954243 37.12816925 16.38835771 40.185825 14.55859375 43.45703125 C14.23085464 44.0454631 13.90311554 44.63389496 13.56544495 45.24015808 C12.87780935 46.47255978 12.18774656 47.70361007 11.49536133 48.93334961 C10.43229117 50.8217528 9.37667996 52.71417432 8.32226562 54.60742188 C3.16392669 63.83607331 3.16392669 63.83607331 2 65 C-0.86267567 65.07325168 -3.700719 65.09238205 -6.5625 65.0625 C-7.36880859 65.05798828 -8.17511719 65.05347656 -9.00585938 65.04882812 C-11.00393756 65.03700518 -13.00197783 65.01906914 -15 65 C-15.30164063 65.76699219 -15.60328125 66.53398437 -15.9140625 67.32421875 C-17.05873682 70.14472921 -18.18160571 72.55216153 -20 75 C-21.32 75 -22.64 75 -24 75 C-22.62411965 71.29570676 -21.08109119 68.46848532 -19 65 C-23.95 65 -28.9 65 -34 65 C-33.13036082 61.52144327 -32.20150507 59.26221899 -30.515625 56.16796875 C-29.9987915 55.2155127 -29.48195801 54.26305664 -28.94946289 53.28173828 C-28.38864014 52.26063965 -27.82781738 51.23954102 -27.25 50.1875 C-26.67306396 49.13030762 -26.09612793 48.07311523 -25.50170898 46.98388672 C-10.16109199 18.96227481 -10.16109199 18.96227481 -2.19702148 6.20458984 C-1.06049232 4.11141049 -0.45126251 2.32693628 0 0 Z " fill="#0C6C04" transform="translate(356,108)"/>
<path d="M0 0 C4.90984283 3.16412093 7.84443435 7.28076221 9.58984375 12.8984375 C11.1796196 21.04414616 10.28356117 28.83979512 6 36 C3.89578306 38.41500928 1.65994934 40.22864912 -1 42 C-2.3921875 42.928125 -2.3921875 42.928125 -3.8125 43.875 C-10.49289638 46.23278696 -17.44034453 45.52294441 -24 43 C-30.55773263 39.27109321 -33.99783445 35.25891511 -36 28 C-37.55934561 12.012604 -37.55934561 12.012604 -32.55859375 5.609375 C-22.76942925 -4.49873471 -12.75667727 -7.31484073 0 0 Z " fill="#1A191B" transform="translate(281,103)"/>
<path d="M0 0 C1.15693359 0.00644531 2.31386719 0.01289063 3.50585938 0.01953125 C4.70404297 0.03628906 5.90222656 0.05304688 7.13671875 0.0703125 C8.96299805 0.08384766 8.96299805 0.08384766 10.82617188 0.09765625 C13.82572149 0.12118213 16.82486919 0.15405597 19.82421875 0.1953125 C19.86829339 1.79141718 19.89970308 3.38787487 19.92578125 4.984375 C19.94463379 5.87334473 19.96348633 6.76231445 19.98291016 7.67822266 C19.74346796 11.47614422 18.34314103 13.4112405 15.82421875 16.1953125 C10.24919036 20.49273022 6.3170001 21.34916987 -0.61328125 21.4453125 C-2.28197266 21.48398438 -2.28197266 21.48398438 -3.984375 21.5234375 C-8.33037674 21.07660256 -10.88701649 19.4396371 -13.98828125 16.4453125 C-15.72146234 13.16139044 -15.62510758 10.85411265 -15.17578125 7.1953125 C-11.46084989 1.00376023 -6.91839002 -0.06816148 0 0 Z " fill="#1E1C1C" transform="translate(165.17578125,128.8046875)"/>
<path d="M0 0 C3.57011637 3.44374057 6.67026744 6.98268113 9.6875 10.9375 C10.1088623 11.48946045 10.53022461 12.0414209 10.96435547 12.61010742 C15.78723469 18.9689979 20.40334362 25.47665998 25 32 C24.67 32.66 24.34 33.32 24 34 C22.68 33.01 21.36 32.02 20 31 C19.731875 31.928125 19.46375 32.85625 19.1875 33.8125 C18.08851629 36.76240366 17.37581439 38.05615186 15 40 C16 37 17 34 18 31 C17.00701295 29.00059438 17.00701295 29.00059438 15.4296875 26.98046875 C14.57890625 25.81741211 14.57890625 25.81741211 13.7109375 24.63085938 C13.10507812 23.82455078 12.49921875 23.01824219 11.875 22.1875 C11.29234375 21.39279297 10.7096875 20.59808594 10.109375 19.77929688 C6.87514552 15.39568315 3.5362351 11.14339999 0 7 C-1.32 8.32 -2.64 9.64 -4 11 C-2.7874262 7.27566618 -1.49140021 3.62197194 0 0 Z " fill="#4C6803" transform="translate(356,108)"/>
<path d="M0 0 C1.32 0 2.64 0 4 0 C2.125 4.75 2.125 4.75 1 7 C6.28 7 11.56 7 17 7 C15.875 12.625 15.875 12.625 13 15 C13.66 13.02 14.32 11.04 15 9 C10.35469321 9.06884472 5.71028941 9.15679304 1.06567383 9.26245117 C-0.51430243 9.29570188 -2.09439752 9.32373346 -3.67456055 9.34643555 C-5.94631579 9.37998016 -8.21698203 9.43229227 -10.48828125 9.48828125 C-11.19463211 9.49467117 -11.90098297 9.5010611 -12.6287384 9.50764465 C-16.59394218 9.62174134 -16.59394218 9.62174134 -19.96948242 11.53198242 C-20.30955322 12.01642822 -20.64962402 12.50087402 -21 13 C-20.34 11.02 -19.68 9.04 -19 7 C-17.44539063 6.99613281 -17.44539063 6.99613281 -15.859375 6.9921875 C-14.48954048 6.95465779 -13.11974962 6.91551016 -11.75 6.875 C-10.72712891 6.87886719 -10.72712891 6.87886719 -9.68359375 6.8828125 C-7.37360545 6.85220409 -7.37360545 6.85220409 -4 6 C-1.75205204 3.02437952 -1.75205204 3.02437952 0 0 Z " fill="#966A08" transform="translate(416,31)"/>
<path d="M0 0 C0.495 0.99 0.495 0.99 1 2 C-0.24607404 4.45679846 -1.52595056 6.76770977 -2.9375 9.125 C-4.278125 11.39375 -5.61875 13.6625 -7 16 C-12.61 16 -18.22 16 -24 16 C-24.99 18.475 -24.99 18.475 -26 21 C-27.375 23.8125 -27.375 23.8125 -29 26 C-30.32 26 -31.64 26 -33 26 C-31.62411965 22.29570676 -30.08109119 19.46848532 -28 16 C-32.95 16 -37.9 16 -43 16 C-42.67 14.68 -42.34 13.36 -42 12 C-41.67 12.66 -41.34 13.32 -41 14 C-30.11 14 -19.22 14 -8 14 C-5.36 9.38 -2.72 4.76 0 0 Z " fill="#B06C02" transform="translate(365,157)"/>
<path d="M0 0 C1.32 0 2.64 0 4 0 C2.66759388 3.58724724 1.29060528 6.91649289 -1 10 C-2.32 10 -3.64 10 -5 10 C-3.66759388 6.41275276 -2.29060528 3.08350711 0 0 Z " fill="#E36E03" transform="translate(337,173)"/>
<path d="M0 0 C1.32 0 2.64 0 4 0 C2.87548273 2.9719385 1.77706209 5.33440687 0 8 C-1.32 8 -2.64 8 -4 8 C-2.87548273 5.0280615 -1.77706209 2.66559313 0 0 Z " fill="#EE7301" transform="translate(416,31)"/>
<path d="M0 0 C0.66 0.33 1.32 0.66 2 1 C-1.63 4.63 -5.26 8.26 -9 12 C-9 7.8407692 -6.75316432 5.85455565 -4 3 C-1.6875 1.125 -1.6875 1.125 0 0 Z " fill="#372A1F" transform="translate(61,81)"/>
<path d="M0 0 C2.93200474 2.85276137 5.64315404 5.65079784 8 9 C7.67 9.66 7.34 10.32 7 11 C3.20486142 8.64439674 1.73399187 6.07488089 0 2 C0 1.34 0 0.68 0 0 Z " fill="#A46902" transform="translate(373,131)"/>
<path d="M0 0 C-1.15173355 2.46800047 -2.04783565 4.04783565 -4 6 C-4.39764263 7.98821313 -4.73775349 9.98944339 -5 12 C-5.33 12 -5.66 12 -6 12 C-6.32644414 7.83783725 -6.40650982 5.63686538 -4.125 2.0625 C-2 0 -2 0 0 0 Z " fill="#463221" transform="translate(156,131)"/>
</svg>
