<?xml version="1.0" encoding="UTF-8"?>
<svg version="1.1" xmlns="http://www.w3.org/2000/svg" width="81" height="81">
<path d="M0 0 C26.73 0 53.46 0 81 0 C81 26.73 81 53.46 81 81 C54.27 81 27.54 81 0 81 C0 54.27 0 27.54 0 0 Z " fill="#161618" transform="translate(0,0)"/>
<path d="M0 0 C1.01037827 0.00222061 2.02075653 0.00444122 3.06175232 0.00672913 C4.77341331 0.00684242 4.77341331 0.00684242 6.51965332 0.00695801 C7.76129745 0.01211929 9.00294159 0.01728058 10.2822113 0.02259827 C12.17785072 0.02472069 12.17785072 0.02472069 14.11178589 0.02688599 C17.47705394 0.0315487 20.84225495 0.04053972 24.20750427 0.05158997 C27.63930175 0.06180606 31.07110614 0.06638403 34.50291443 0.07142639 C41.2405633 0.08248071 47.9781803 0.09923742 54.71580505 0.12025452 C55.27830505 2.05775452 55.27830505 2.05775452 55.71580505 4.12025452 C54.71580505 5.12025452 54.71580505 5.12025452 52.43161011 5.24050903 C51.42123184 5.23828842 50.41085358 5.23606781 49.36985779 5.23377991 C48.22875046 5.23370438 47.08764313 5.23362885 45.91195679 5.23355103 C44.67031265 5.22838974 43.42866852 5.22322845 42.1493988 5.21791077 C40.25375938 5.21578835 40.25375938 5.21578835 38.31982422 5.21362305 C34.95455616 5.20896034 31.58935516 5.19996932 28.22410583 5.18891907 C24.79230836 5.17870298 21.36050397 5.174125 17.92869568 5.16908264 C11.19104681 5.15802832 4.45342981 5.14127162 -2.28419495 5.12025452 C-2.84669495 3.18275452 -2.84669495 3.18275452 -3.28419495 1.12025452 C-2.28419495 0.12025452 -2.28419495 0.12025452 0 0 Z " fill="#D07E32" transform="translate(15.284194946289063,57.87974548339844)"/>
<path d="M0 0 C19.14 0 38.28 0 58 0 C58.495 1.98 58.495 1.98 59 4 C39.53 4 20.06 4 0 4 C0 2.68 0 1.36 0 0 Z " fill="#E18734" transform="translate(12,39)"/>
<path d="M0 0 C19.47 0 38.94 0 59 0 C58.67 1.32 58.34 2.64 58 4 C38.86 4 19.72 4 0 4 C0 2.68 0 1.36 0 0 Z " fill="#E08634" transform="translate(12,20)"/>
</svg>
