<?xml version="1.0" encoding="UTF-8"?>
<svg version="1.1" xmlns="http://www.w3.org/2000/svg" width="482" height="213">
<path d="M0 0 C2.8125 -0.4375 2.8125 -0.4375 5 0 C4.67 1.98 4.34 3.96 4 6 C4.59167969 6.06058594 5.18335938 6.12117188 5.79296875 6.18359375 C9.90978208 6.62012371 13.95544533 7.08671346 18 8 C17.32986605 11.3914178 16.02453945 14.0112775 14.33203125 17.015625 C13.4968396 18.50412964 13.4968396 18.50412964 12.64477539 20.02270508 C12.04012451 21.0877124 11.43547363 22.15271973 10.8125 23.25 C10.19044678 24.35303467 9.56839355 25.45606934 8.92749023 26.5925293 C2.94103485 37.17469299 -3.17729746 47.67955038 -9.33544922 58.16259766 C-12.23350211 63.10263443 -15.11627088 68.05159229 -18 73 C-15.12221304 78.31495581 -11.85088846 83.00006989 -8.125 87.75 C-3.39342868 93.85655212 1.2519324 100.01470655 5.8125 106.25 C11.64436263 114.22208674 17.6112555 122.08351919 23.67114258 129.88378906 C27.17722751 134.43677756 30.29809234 138.92535109 33 144 C29.5840944 147.4159056 17.88701553 145.69123349 13.24780273 145.78955078 C11.13954339 145.84610714 9.0317949 145.92778263 6.92553711 146.03564453 C-10.03064135 146.88779434 -10.03064135 146.88779434 -14.89276123 143.79666138 C-18.51083049 140.40405517 -20.71212156 136.35499949 -23 132 C-23.95778995 130.63075358 -24.93698093 129.2757362 -25.953125 127.94921875 C-27.10426466 126.31452213 -28.25540296 124.67982452 -29.40625 123.04492188 C-32.52318177 118.63446342 -35.74265658 114.30771866 -39 110 C-39.33209473 110.64437012 -39.66418945 111.28874023 -40.00634766 111.95263672 C-41.54251097 114.92852021 -43.08372527 117.90176081 -44.625 120.875 C-45.14707031 121.88820313 -45.66914063 122.90140625 -46.20703125 123.9453125 C-55.1296875 141.1296875 -55.1296875 141.1296875 -58 144 C-59.82487528 144 -61.64977183 143.99830824 -63.47460938 143.98657227 C-70.47221774 143.87177254 -70.47221774 143.87177254 -76.39453125 147.06640625 C-77.85241637 149.33304516 -79.0263779 151.48988054 -80 154 C-81.65 153.67 -83.3 153.34 -85 153 C-84.01 150.36 -83.02 147.72 -82 145 C-86.29 144.67 -90.58 144.34 -95 144 C-94.21858414 140.09292069 -93.77746864 138.2005912 -91.953125 134.9453125 C-91.31370972 133.79313232 -91.31370972 133.79313232 -90.66137695 132.61767578 C-90.19562256 131.79509277 -89.72986816 130.97250977 -89.25 130.125 C-88.5233313 128.82344971 -88.5233313 128.82344971 -87.78198242 127.49560547 C-86.19545391 124.65947454 -84.59843965 121.82943282 -83 119 C-81.88659463 117.02090316 -80.77331434 115.04173594 -79.66015625 113.0625 C-78.54455376 111.08317384 -77.42866995 109.10400621 -76.3125 107.125 C-75.49386475 105.6714209 -75.49386475 105.6714209 -74.65869141 104.18847656 C-72.27345492 99.96583669 -69.87403278 95.7588342 -67.36328125 91.609375 C-66.97938232 90.96726074 -66.5954834 90.32514648 -66.19995117 89.66357422 C-65.20985002 88.01617903 -64.2033281 86.37868246 -63.1953125 84.7421875 C-61.84538497 82.12725845 -61.84538497 82.12725845 -61.96484375 79.5703125 C-63.47340566 75.82452482 -65.85076961 73.06941222 -68.4375 70 C-69.54400774 68.6531967 -70.64946125 67.30552662 -71.75390625 65.95703125 C-72.30578613 65.28752441 -72.85766602 64.61801758 -73.42626953 63.92822266 C-75.63395163 61.22324698 -77.7558147 58.46253965 -79.875 55.6875 C-82.75317574 51.92301407 -85.64289541 48.16911514 -88.55859375 44.43359375 C-89.17943848 43.63800049 -89.8002832 42.84240723 -90.43994141 42.02270508 C-91.65594651 40.46567951 -92.87300848 38.90947854 -94.09130859 37.35424805 C-97.50823165 32.97646788 -100.8055789 28.5429103 -104 24 C-103.67 23.34 -103.34 22.68 -103 22 C-97.07807542 21.67617768 -91.1613954 21.4416934 -85.23266602 21.28588867 C-83.22133576 21.22090302 -81.21061045 21.13246959 -79.20141602 21.01928711 C-61.6151586 20.05416099 -61.6151586 20.05416099 -56.30151367 24.74951172 C-53.38799335 27.90052783 -51.20185788 31.3246565 -49 35 C-47.65423979 36.92257846 -46.30174189 38.84049155 -44.9375 40.75 C-44.41027344 41.54921875 -43.88304687 42.3484375 -43.33984375 43.171875 C-42.11757177 45.13165242 -42.11757177 45.13165242 -40 46 C-39.90460938 45.29101562 -39.80921875 44.58203125 -39.7109375 43.8515625 C-38.87522255 40.49951904 -37.50066973 38.27654623 -35.625 35.375 C-31.41305917 28.75835204 -27.49048623 21.99150704 -23.59423828 15.18505859 C-23.14161621 14.39695801 -22.68899414 13.60885742 -22.22265625 12.796875 C-21.81797119 12.08885742 -21.41328613 11.38083984 -20.99633789 10.65136719 C-20 9 -20 9 -19 8 C-16.75023855 7.94699515 -14.50014849 7.90767851 -12.25 7.875 C-7.26734206 7.75194945 -7.26734206 7.75194945 -3.13671875 5.37890625 C-2.04594979 3.61306856 -1.0191283 1.80813085 0 0 Z " fill="#037904" transform="translate(416,30)"/>
<path d="M0 0 C4.96196761 4.58246721 8.48909639 9.740591 11 16 C11.35707031 16.88042969 11.71414063 17.76085937 12.08203125 18.66796875 C15.00454124 29.27605822 14.1736877 42.29732089 9 52 C8.57589844 52.79664063 8.15179688 53.59328125 7.71484375 54.4140625 C2.21527558 63.57490307 -5.90395638 68.89095346 -16 72 C-26.02050699 74.41594748 -35.77123109 73.60727446 -45 69 C-47.00774952 67.67836478 -49.0086225 66.34617735 -51 65 C-50.99214478 66.53708618 -50.99214478 66.53708618 -50.98413086 68.10522461 C-50.96608031 71.89395276 -50.9545678 75.68267709 -50.94506836 79.47143555 C-50.94002826 81.11369464 -50.93319622 82.75594923 -50.92456055 84.39819336 C-50.91248074 86.75375479 -50.90676861 89.10925709 -50.90234375 91.46484375 C-50.89718246 92.20339096 -50.89202118 92.94193817 -50.88670349 93.7028656 C-50.8865075 95.46898088 -50.93805281 97.23497146 -51 99 C-51.33 99.33 -51.66 99.66 -52 100 C-58.27 100 -64.54 100 -71 100 C-71 64.36 -71 28.72 -71 -8 C-65.06 -8 -59.12 -8 -53 -8 C-52.34 -5.69 -51.68 -3.38 -51 -1 C-50.443125 -1.40992187 -49.88625 -1.81984375 -49.3125 -2.2421875 C-33.97372747 -13.07260459 -14.7905999 -11.01216094 0 0 Z M-47.1875 16.125 C-51.94492092 23.67125387 -52.86975105 31.339417 -51 40 C-48.96680756 46.68874103 -44.93671767 50.47697863 -39 54 C-32.7011886 56.0996038 -24.67754343 56.21060109 -18.5625 53.4375 C-13.37925265 50.32535994 -9.93195934 46.24517477 -7.625 40.6875 C-6.12797415 31.85504748 -6.39720138 24.41884345 -11.44140625 16.83203125 C-16.16582745 10.81414903 -21.06314488 8.6020555 -28.5625 7.6875 C-36.12762487 8.6573878 -41.5777624 10.67554062 -47.1875 16.125 Z " fill="#EB8D36" transform="translate(297,92)"/>
<path d="M0 0 C2.83153901 2.18282728 5.4651346 4.48004558 8 7 C7.01957831 12.70512048 7.01957831 12.70512048 4 15 C3.34 15 2.68 15 2 15 C2 15.66 2 16.32 2 17 C-0.25 19.1875 -0.25 19.1875 -3 21 C-6.33066946 20.64410185 -8.21835813 19.22772734 -10.75 17.125 C-19.7413549 10.31187862 -29.06999407 9.88275735 -40 11 C-48.65876738 12.74003938 -55.20516715 16.99508015 -60.53125 24.01953125 C-66.46521486 33.04122783 -67.02103306 42.49101723 -66 53 C-64.10348984 61.41576386 -59.2550534 69.12598604 -52 73.875 C-47.10039992 76.64677376 -42.6992522 78.33525013 -37 78 C-37 78.66 -37 79.32 -37 80 C-25.46967044 78.8454479 -16.00663217 77.64133107 -7.60546875 69.07421875 C-6 68 -6 68 -4.05859375 68.08203125 C-1.39031991 69.27186873 0.12918455 70.87517747 2.125 73 C4.77060724 75.89285588 4.77060724 75.89285588 8 78 C7.34255355 83.25957158 5.34316018 85.04252014 1.3671875 88.296875 C-2.53819557 91.10668856 -6.55627489 93.17298651 -11 95 C-11.7734375 95.32097656 -12.546875 95.64195312 -13.34375 95.97265625 C-27.01497962 100.62347012 -44.70463191 99.46132617 -57.8125 93.78125 C-70.64688911 87.36405545 -81.19676754 76.65129224 -86 63 C-90.2257466 48.50050514 -89.45781863 32.5621516 -82.4921875 19.08203125 C-74.57183682 5.72795161 -63.20326618 -3.49775903 -48.125 -7.4375 C-31.53865256 -11.32464827 -14.53618508 -9.09035205 0 0 Z " fill="#EA8D38" transform="translate(114,67)"/>
<path d="M0 0 C6.79289553 5.72181657 11.23786534 12.22328677 12.5625 21.1875 C12.70649938 24.52632332 12.70258341 27.86161564 12.6953125 31.203125 C12.69626923 32.17352722 12.69722595 33.14392944 12.69821167 34.14373779 C12.69889111 36.19462143 12.69705328 38.24550724 12.69287109 40.29638672 C12.68754277 43.41248498 12.6928121 46.52843759 12.69921875 49.64453125 C12.69855747 51.64322948 12.69727529 53.64192762 12.6953125 55.640625 C12.69733673 56.56280823 12.69936096 57.48499146 12.70144653 58.43511963 C12.68126623 64.09527619 12.28138251 69.57207815 11.5625 75.1875 C8.74993719 75.21434312 5.93762759 75.23426188 3.125 75.25 C1.92133789 75.26256836 1.92133789 75.26256836 0.69335938 75.27539062 C-1.35045221 75.2840143 -3.39433902 75.2397815 -5.4375 75.1875 C-6.4375 74.1875 -6.4375 74.1875 -6.5 71.125 C-6.479375 70.155625 -6.45875 69.18625 -6.4375 68.1875 C-6.994375 68.59742188 -7.55125 69.00734375 -8.125 69.4296875 C-17.54390692 76.08019948 -26.01400194 77.18468933 -37.4375 76.1875 C-46.38425073 74.28417851 -53.10916023 69.91159516 -58.375 62.4375 C-60.69355127 55.34546083 -61.38053094 48.2864031 -58.5625 41.25390625 C-54.86907419 34.4698012 -49.71116443 31.42784122 -42.57421875 28.9140625 C-34.41852889 27.02494878 -26.1434341 27.05270217 -17.8125 27.125 C-16.30623047 27.13176758 -16.30623047 27.13176758 -14.76953125 27.13867188 C-12.32545529 27.15031033 -9.8815118 27.1666576 -7.4375 27.1875 C-7.9777649 25.40975683 -8.54569047 23.64040573 -9.125 21.875 C-9.43824219 20.88886719 -9.75148437 19.90273437 -10.07421875 18.88671875 C-11.99768808 15.0783597 -14.44986695 13.86852168 -18.3984375 12.515625 C-30.2575975 10.60725443 -40.09900747 13.63534661 -50.4375 19.1875 C-51.64003816 17.28023249 -52.82408949 15.3612988 -54 13.4375 C-54.66128906 12.37015625 -55.32257813 11.3028125 -56.00390625 10.203125 C-57.4375 7.1875 -57.4375 7.1875 -57.34375 4.953125 C-54.95153127 0.29242298 -49.56815223 -1.42559907 -44.91015625 -3.01953125 C-30.71247588 -7.16847037 -12.68716584 -9.00150873 0 0 Z M-38.375 44.6875 C-40.66848167 47.92535647 -40.82418166 50.24334704 -40.4375 54.1875 C-38.47969499 57.63323682 -36.99440014 58.9374632 -33.375 60.5625 C-25.52350989 61.80876827 -18.60457312 61.30391339 -12.03125 56.5625 C-9.70005789 54.55127543 -8.49964927 53.10841049 -7.4375 50.1875 C-7.36958426 48.63155051 -7.35251237 47.07289366 -7.375 45.515625 C-7.38402344 44.70512695 -7.39304688 43.89462891 -7.40234375 43.05957031 C-7.41394531 42.44178711 -7.42554688 41.82400391 -7.4375 41.1875 C-10.77075754 41.12875224 -14.10387938 41.09365533 -17.4375 41.0625 C-18.83935547 41.03736328 -18.83935547 41.03736328 -20.26953125 41.01171875 C-29.85180673 40.86572315 -29.85180673 40.86572315 -38.375 44.6875 Z " fill="#EA8E38" transform="translate(191.4375,88.8125)"/>
<path d="M0 0 C2.51838377 1.73138884 3.46183186 3.76680184 5 6.375 C5.99 6.705 6.98 7.035 8 7.375 C9.67363077 9.25964121 11.18558758 11.11286853 12.6875 13.125 C13.10322266 13.6509375 13.51894531 14.176875 13.94726562 14.71875 C16.44670189 18.03491502 17.53206931 20.21097928 17 24.375 C16.34 24.375 15.68 24.375 15 24.375 C14.75765625 25.20515625 14.5153125 26.0353125 14.265625 26.890625 C12.80379194 30.91517774 10.88477849 34.42662122 8.75 38.125 C8.38003906 38.77726562 8.01007813 39.42953125 7.62890625 40.1015625 C6.85297964 41.46274434 6.0554045 42.81177005 5.23876953 44.14892578 C3.91377712 46.40115603 3.91377712 46.40115603 2.97607422 49.09716797 C1.62684606 52.2279767 0.57448402 54.11675882 -2 56.375 C-7.82986631 57.63668749 -13.45147775 57.31989676 -19.375 57 C-20.98553958 56.9498022 -22.59622873 56.90418117 -24.20703125 56.86328125 C-28.14172695 56.75342265 -32.06922073 56.58114866 -36 56.375 C-29.79440363 43.79121651 -29.79440363 43.79121651 -26.375 38.0625 C-24.22419929 34.44249036 -22.0968665 30.81275149 -20.01318359 27.15356445 C-19.03624384 25.43862323 -18.05338988 23.72705526 -17.0703125 22.015625 C-16.42835938 20.89671875 -15.78640625 19.7778125 -15.125 18.625 C-14.78057861 18.0266333 -14.43615723 17.4282666 -14.08129883 16.81176758 C-11.36395125 12.07009992 -8.80542713 7.25671227 -6.32421875 2.38671875 C-4.56604205 -0.28425765 -3.10696591 -0.97092685 0 0 Z " fill="#046C04" transform="translate(359,115.625)"/>
<path d="M0 0 C10.89 0 21.78 0 33 0 C31.66822779 3.32943053 30.56815688 5.91882703 28.7578125 8.890625 C28.33113281 9.60089844 27.90445313 10.31117187 27.46484375 11.04296875 C26.58064932 12.49944062 25.69525725 13.95518618 24.80859375 15.41015625 C21.78328049 20.45234502 19.26890056 25.57568539 17 31 C16.34 31 15.68 31 15 31 C14.73058594 31.7115625 14.46117187 32.423125 14.18359375 33.15625 C12.97547664 36.05892082 11.58139392 38.74821254 10.0625 41.5 C9.30646484 42.87671875 9.30646484 42.87671875 8.53515625 44.28125 C8.02855469 45.1784375 7.52195312 46.075625 7 47 C6.25556641 48.40765625 6.25556641 48.40765625 5.49609375 49.84375 C5.00238281 50.5553125 4.50867188 51.266875 4 52 C3.01 52 2.02 52 1 52 C0.34 53.98 -0.32 55.96 -1 58 C-3.9375 56.6875 -3.9375 56.6875 -7 55 C-7.495 53.515 -7.495 53.515 -8 52 C-8.99 51.67 -9.98 51.34 -11 51 C-12.80967349 48.35509259 -13.98472371 46.04582887 -15 43 C-15.99 43 -16.98 43 -18 43 C-19.39935013 40.20129973 -19.25265405 38.09501208 -19 35 C-17.5625 33.375 -17.5625 33.375 -16 32 C-15.28552357 29.89667109 -15.28552357 29.89667109 -15 28 C-14.34 28 -13.68 28 -13 28 C-13.06960938 27.14792969 -13.13921875 26.29585937 -13.2109375 25.41796875 C-12.9548843 21.26895865 -11.67273171 18.91065715 -9.625 15.3125 C-8.99851562 14.19488281 -8.37203125 13.07726562 -7.7265625 11.92578125 C-6.54067668 9.91621455 -5.29432887 7.94149331 -4 6 C-3.34 6 -2.68 6 -2 6 C-1.855625 5.38125 -1.71125 4.7625 -1.5625 4.125 C-1 2 -1 2 0 0 Z " fill="#04B906" transform="translate(398,40)"/>
<path d="M0 0 C2.8125 -0.4375 2.8125 -0.4375 5 0 C4.67 1.98 4.34 3.96 4 6 C4.59167969 6.06058594 5.18335938 6.12117188 5.79296875 6.18359375 C9.90978208 6.62012371 13.95544533 7.08671346 18 8 C17.32986605 11.3914178 16.02453945 14.0112775 14.33203125 17.015625 C13.4968396 18.50412964 13.4968396 18.50412964 12.64477539 20.02270508 C12.04012451 21.0877124 11.43547363 22.15271973 10.8125 23.25 C10.19044678 24.35303467 9.56839355 25.45606934 8.92749023 26.5925293 C2.94103485 37.17469299 -3.17729746 47.67955038 -9.33544922 58.16259766 C-12.23350211 63.10263443 -15.11627088 68.05159229 -18 73 C-15.12221304 78.31495581 -11.85088846 83.00006989 -8.125 87.75 C-3.39342868 93.85655212 1.2519324 100.01470655 5.8125 106.25 C11.64436263 114.22208674 17.6112555 122.08351919 23.67114258 129.88378906 C27.17722751 134.43677756 30.29809234 138.92535109 33 144 C29.5840944 147.4159056 17.88701553 145.69123349 13.24780273 145.78955078 C11.13954339 145.84610714 9.0317949 145.92778263 6.92553711 146.03564453 C-10.03064135 146.88779434 -10.03064135 146.88779434 -14.89276123 143.79666138 C-18.51083049 140.40405517 -20.71212156 136.35499949 -23 132 C-23.95778995 130.63075358 -24.93698093 129.2757362 -25.953125 127.94921875 C-27.10426466 126.31452213 -28.25540296 124.67982452 -29.40625 123.04492188 C-32.52318177 118.63446342 -35.74265658 114.30771866 -39 110 C-39.33209473 110.64437012 -39.66418945 111.28874023 -40.00634766 111.95263672 C-41.54251097 114.92852021 -43.08372527 117.90176081 -44.625 120.875 C-45.14707031 121.88820313 -45.66914063 122.90140625 -46.20703125 123.9453125 C-55.1296875 141.1296875 -55.1296875 141.1296875 -58 144 C-59.82487528 144 -61.64977183 143.99830824 -63.47460938 143.98657227 C-70.47221774 143.87177254 -70.47221774 143.87177254 -76.39453125 147.06640625 C-77.85241637 149.33304516 -79.0263779 151.48988054 -80 154 C-81.65 153.67 -83.3 153.34 -85 153 C-84.01 150.36 -83.02 147.72 -82 145 C-86.29 144.67 -90.58 144.34 -95 144 C-94.21858414 140.09292069 -93.77746864 138.2005912 -91.953125 134.9453125 C-91.31370972 133.79313232 -91.31370972 133.79313232 -90.66137695 132.61767578 C-90.19562256 131.79509277 -89.72986816 130.97250977 -89.25 130.125 C-88.5233313 128.82344971 -88.5233313 128.82344971 -87.78198242 127.49560547 C-86.19545391 124.65947454 -84.59843965 121.82943282 -83 119 C-81.88659463 117.02090316 -80.77331434 115.04173594 -79.66015625 113.0625 C-78.54455376 111.08317384 -77.42866995 109.10400621 -76.3125 107.125 C-75.49386475 105.6714209 -75.49386475 105.6714209 -74.65869141 104.18847656 C-72.27345492 99.96583669 -69.87403278 95.7588342 -67.36328125 91.609375 C-66.97938232 90.96726074 -66.5954834 90.32514648 -66.19995117 89.66357422 C-65.20985002 88.01617903 -64.2033281 86.37868246 -63.1953125 84.7421875 C-61.84538497 82.12725845 -61.84538497 82.12725845 -61.96484375 79.5703125 C-63.47340566 75.82452482 -65.85076961 73.06941222 -68.4375 70 C-69.54400774 68.6531967 -70.64946125 67.30552662 -71.75390625 65.95703125 C-72.30578613 65.28752441 -72.85766602 64.61801758 -73.42626953 63.92822266 C-75.63395163 61.22324698 -77.7558147 58.46253965 -79.875 55.6875 C-82.75317574 51.92301407 -85.64289541 48.16911514 -88.55859375 44.43359375 C-89.17943848 43.63800049 -89.8002832 42.84240723 -90.43994141 42.02270508 C-91.65594651 40.46567951 -92.87300848 38.90947854 -94.09130859 37.35424805 C-97.50823165 32.97646788 -100.8055789 28.5429103 -104 24 C-103.67 23.34 -103.34 22.68 -103 22 C-97.07807542 21.67617768 -91.1613954 21.4416934 -85.23266602 21.28588867 C-83.22133576 21.22090302 -81.21061045 21.13246959 -79.20141602 21.01928711 C-61.6151586 20.05416099 -61.6151586 20.05416099 -56.30151367 24.74951172 C-53.38799335 27.90052783 -51.20185788 31.3246565 -49 35 C-47.65423979 36.92257846 -46.30174189 38.84049155 -44.9375 40.75 C-44.41027344 41.54921875 -43.88304687 42.3484375 -43.33984375 43.171875 C-42.11757177 45.13165242 -42.11757177 45.13165242 -40 46 C-39.90460938 45.29101562 -39.80921875 44.58203125 -39.7109375 43.8515625 C-38.87522255 40.49951904 -37.50066973 38.27654623 -35.625 35.375 C-31.41305917 28.75835204 -27.49048623 21.99150704 -23.59423828 15.18505859 C-23.14161621 14.39695801 -22.68899414 13.60885742 -22.22265625 12.796875 C-21.81797119 12.08885742 -21.41328613 11.38083984 -20.99633789 10.65136719 C-20 9 -20 9 -19 8 C-16.75023855 7.94699515 -14.50014849 7.90767851 -12.25 7.875 C-7.26734206 7.75194945 -7.26734206 7.75194945 -3.13671875 5.37890625 C-2.04594979 3.61306856 -1.0191283 1.80813085 0 0 Z M-18 10 C-20.2773501 12.81509993 -20.2773501 12.81509993 -20 16 C-20.66 16 -21.32 16 -22 16 C-29.61834129 25.63333736 -34.58110226 38.01791434 -40 49 C-40.78117187 48.21625 -41.56234375 47.4325 -42.3671875 46.625 C-43.93346837 45.06336685 -45.5143879 43.51587022 -47.125 42 C-49 40 -49 40 -50.359375 37.703125 C-52.09051685 34.85086272 -54.02371691 32.33977326 -56.125 29.75 C-56.82882812 28.87859375 -57.53265625 28.0071875 -58.2578125 27.109375 C-59.13784199 26.04386844 -60.02282137 24.97717863 -61 24 C-63.8843382 23.91134792 -66.74462158 23.88478704 -69.62890625 23.90234375 C-70.49313705 23.9037587 -71.35736786 23.90517365 -72.24778748 23.90663147 C-75.01939292 23.91224761 -77.7909188 23.92480281 -80.5625 23.9375 C-82.4368478 23.94251292 -84.31119685 23.94707619 -86.18554688 23.95117188 C-90.79039544 23.96222228 -95.39518421 23.9794977 -100 24 C-98.79559277 27.30494447 -97.53855474 29.8742701 -95.27734375 32.56640625 C-94.47659424 33.53247803 -94.47659424 33.53247803 -93.65966797 34.51806641 C-93.09135254 35.19272949 -92.52303711 35.86739258 -91.9375 36.5625 C-90.74954846 37.99724774 -89.56335874 39.43345602 -88.37890625 40.87109375 C-87.79898926 41.57476074 -87.21907227 42.27842773 -86.62158203 43.00341797 C-83.71475417 46.58246619 -80.99281255 50.29027164 -78.25 53.99609375 C-75.22072989 58.04037971 -72.10096259 62.00991152 -68.96240234 65.96972656 C-65.69792249 70.08998883 -62.52973634 74.27161253 -59.4375 78.5234375 C-58.963125 79.01070313 -58.48875 79.49796875 -58 80 C-57.01 80 -56.02 80 -55 80 C-54.731875 80.70125 -54.46375 81.4025 -54.1875 82.125 C-51.39515236 88.88542061 -47.68542194 94.37211316 -43.3125 100.1875 C-42.04276517 101.89307763 -40.7732325 103.59880578 -39.50390625 105.3046875 C-38.5914917 106.52623535 -38.5914917 106.52623535 -37.66064453 107.77246094 C-32.60374048 114.55564126 -27.67664899 121.43444458 -22.75 128.3125 C-22.33717773 128.88782471 -21.92435547 129.46314941 -21.49902344 130.0559082 C-19.5502154 132.78321044 -17.67527507 135.51655317 -15.890625 138.35546875 C-14.20748498 141.25741209 -14.20748498 141.25741209 -11 142 C-8.05035887 142.085409 -5.12496981 142.11582927 -2.17578125 142.09765625 C-1.31438034 142.0962413 -0.45297943 142.09482635 0.43452454 142.09336853 C3.18555169 142.0877714 5.93649744 142.07521946 8.6875 142.0625 C10.5527332 142.05748463 12.41796767 142.05292179 14.28320312 142.04882812 C18.85550011 142.03780292 23.42773625 142.02054027 28 142 C26.48657403 138.02487266 24.73302636 135.06455977 22.125 131.6875 C21.32449219 130.64078125 20.52398437 129.5940625 19.69921875 128.515625 C19.26528809 127.95166016 18.83135742 127.38769531 18.38427734 126.80664062 C15.87769251 123.53526007 13.4094302 120.23509541 10.9375 116.9375 C10.41994141 116.24857666 9.90238281 115.55965332 9.36914062 114.84985352 C6.5823717 111.13489933 3.83207451 107.39867346 1.125 103.625 C-3.07481056 97.79831545 -7.52317479 92.16690782 -11.98974609 86.54345703 C-15.66515735 81.87418983 -18.96807236 77.11155792 -22 72 C-21.34 72 -20.68 72 -20 72 C-18.34400228 69.4448591 -16.81122027 66.89580267 -15.3125 64.25 C-14.41538374 62.69139522 -13.5182482 61.13280154 -12.62109375 59.57421875 C-12.17878418 58.79997559 -11.73647461 58.02573242 -11.28076172 57.22802734 C-10.13275257 55.23093785 -8.96629905 53.24714518 -7.78515625 51.26953125 C-7.15480469 50.21121094 -6.52445312 49.15289062 -5.875 48.0625 C-5.31554687 47.12535156 -4.75609375 46.18820313 -4.1796875 45.22265625 C-2.84372844 43.12495439 -2.84372844 43.12495439 -3 41 C-2.34 41 -1.68 41 -1 41 C-0.59910156 40.16339844 -0.19820313 39.32679687 0.21484375 38.46484375 C3.85676954 31.00756713 7.75897619 23.84342015 12.15405273 16.80053711 C14.29354518 13.63875049 14.29354518 13.63875049 15 10 C10.33694962 9.92594113 5.67424016 9.87144237 1.01074219 9.83520508 C-0.57623251 9.82010186 -2.16316537 9.79961777 -3.75 9.77368164 C-6.02875073 9.73736405 -8.30695058 9.72028977 -10.5859375 9.70703125 C-11.29744965 9.69154739 -12.00896179 9.67606354 -12.74203491 9.66011047 C-14.95754404 9.62453492 -14.95754404 9.62453492 -18 10 Z M-62 86 C-63.55599096 88.43623727 -64.9527967 90.83268309 -66.3125 93.375 C-66.70840332 94.09727783 -67.10430664 94.81955566 -67.51220703 95.5637207 C-68.68355177 97.70452799 -69.84274903 99.85154952 -71 102 C-72.12449167 104.06277719 -73.24940709 106.12532352 -74.375 108.1875 C-74.81585938 109.00605469 -75.25671875 109.82460937 -75.7109375 110.66796875 C-76.57380279 112.2289705 -77.46552776 113.77434726 -78.38452148 115.30297852 C-81.23906838 120.0686094 -83.95037347 124.91628793 -86.6875 129.75 C-87.59725586 131.34908203 -87.59725586 131.34908203 -88.52539062 132.98046875 C-89.09837891 133.99238281 -89.67136719 135.00429687 -90.26171875 136.046875 C-90.78725342 136.97338867 -91.31278809 137.89990234 -91.85424805 138.85449219 C-93.07851038 140.74163785 -93.07851038 140.74163785 -93 142 C-81.78 142 -70.56 142 -59 142 C-56.33743451 137.25764867 -56.33743451 137.25764867 -53.67602539 132.51464844 C-51.67894983 128.96068303 -49.66881611 125.41568784 -47.62109375 121.890625 C-47.25306641 121.25527832 -46.88503906 120.61993164 -46.50585938 119.96533203 C-45.48498171 118.20679094 -44.45940099 116.4509826 -43.43359375 114.6953125 C-41.84346942 112.21451398 -41.84346942 112.21451398 -42 110 C-41.34 110 -40.68 110 -40 110 C-39.44771387 106.24020594 -40.03440046 104.94586053 -42.1171875 101.66796875 C-43.02402538 100.49806857 -43.94376525 99.33807517 -44.875 98.1875 C-45.33519531 97.59001953 -45.79539062 96.99253906 -46.26953125 96.37695312 C-47.45655455 94.87166995 -48.72303757 93.42977925 -50 92 C-50.66 92 -51.32 92 -52 92 C-53.39138161 90.25185388 -54.56294846 88.40327432 -55.78125 86.53125 C-56.1834375 86.0259375 -56.585625 85.520625 -57 85 C-59.21081851 84.89459074 -59.21081851 84.89459074 -62 86 Z " fill="#869D18" transform="translate(416,30)"/>
<path d="M0 0 C0.66 0.33 1.32 0.66 2 1 C0.81397665 4.16272894 -0.55925964 7.17446628 -2.078125 10.1875 C-2.61808105 11.26064453 -2.61808105 11.26064453 -3.16894531 12.35546875 C-3.44319336 12.89816406 -3.71744141 13.44085938 -4 14 C3.4850852 24.49706298 11.12588901 34.85206117 18.96679688 45.08618164 C28.51859869 57.56948568 37.78579562 70.26608401 47 83 C46.67 83.66 46.34 84.32 46 85 C39.77491004 85.32330676 33.55477354 85.558083 27.32324219 85.71411133 C25.20811817 85.77917965 23.09357213 85.86767498 20.98046875 85.98071289 C3.95165236 86.86829978 3.95165236 86.86829978 -0.89599609 83.79989624 C-4.51768397 80.40899541 -6.71508031 76.35772769 -9 72 C-9.95762062 70.63063515 -10.93678045 69.27558261 -11.953125 67.94921875 C-12.71109375 66.87285156 -13.4690625 65.79648438 -14.25 64.6875 C-19.51290624 57.26102501 -19.51290624 57.26102501 -25 50 C-25.33 50 -25.66 50 -26 50 C-26 48.35 -26 46.7 -26 45 C-20.81899665 49.69528428 -17.02652057 55.31550037 -13 61 C-11.6739879 62.85902681 -10.34623926 64.71680478 -9.01831055 66.57446289 C-8.14887547 67.7916082 -7.28050163 69.00951246 -6.41333008 70.22827148 C-4.71511777 72.6135546 -3.01476438 74.98118265 -1.20703125 77.28515625 C0 79 0 79 0 81 C13.86 81.33 27.72 81.66 42 82 C36.98483168 74.46845075 36.98483168 74.46845075 31.6875 67.1875 C30.53507812 65.66382813 30.53507812 65.66382813 29.359375 64.109375 C28.19148438 62.57023437 28.19148438 62.57023437 27 61 C22.72233577 55.32554745 18.45549133 49.64874324 14.3125 43.875 C10.00705799 37.91696408 5.47158134 32.14194068 0.9230957 26.36865234 C-8 14.99615256 -8 14.99615256 -8 12 C-7.34 12 -6.68 12 -6 12 C-5.7525 11.319375 -5.505 10.63875 -5.25 9.9375 C-3.75802092 6.43134917 -1.93164489 3.28379632 0 0 Z " fill="#8B821F" transform="translate(402,90)"/>
<path d="M0 0 C0.66 0 1.32 0 2 0 C2.66 0.99 3.32 1.98 4 3 C4.99 3.33 5.98 3.66 7 4 C8.2890625 6.08203125 8.2890625 6.08203125 9.625 8.8125 C13.07796055 15.45683317 17.38677785 21.12583047 22 27 C21.67 27.66 21.34 28.32 21 29 C20.37351562 28.14535156 19.74703125 27.29070312 19.1015625 26.41015625 C18.27625386 25.29411389 17.45072138 24.17823702 16.625 23.0625 C16.2125 22.49853516 15.8 21.93457031 15.375 21.35351562 C13.1230631 18.19151048 13.1230631 18.19151048 10 16 C9.67 16.66 9.34 17.32 9 18 C8.566875 16.865625 8.13375 15.73125 7.6875 14.5625 C7.130625 13.386875 6.57375 12.21125 6 11 C3.05270463 9.84188612 3.05270463 9.84188612 0 10 C-0.37511719 11.02673828 -0.37511719 11.02673828 -0.7578125 12.07421875 C-2.20542021 15.48383565 -4.00324911 18.62520773 -5.875 21.8125 C-8.12006691 25.68172226 -10.34171656 29.54424895 -12.3125 33.5625 C-13.75258763 36.49601184 -15.31152355 39.20798821 -17 42 C-18.0515265 43.8364476 -19.09679093 45.67649086 -20.13671875 47.51953125 C-20.65709717 48.44096924 -21.17747559 49.36240723 -21.71362305 50.31176758 C-22.36500244 51.46700928 -23.01638184 52.62225098 -23.6875 53.8125 C-25.770625 57.504375 -27.85375 61.19625 -30 65 C-19.11 65 -8.22 65 3 65 C7.09906167 57.41736565 7.09906167 57.41736565 11.19628906 49.83374023 C14.07170773 44.51994149 16.97007432 39.22737178 20 34 C20.66 34 21.32 34 22 34 C20.66652037 38.35007074 18.96993649 42.20051256 16.8125 46.203125 C16.19632812 47.3478125 15.58015625 48.4925 14.9453125 49.671875 C14.62594727 50.25904297 14.30658203 50.84621094 13.97753906 51.45117188 C12.99687658 53.25574759 12.0253065 55.06500614 11.0546875 56.875 C6.26254618 65.73745382 6.26254618 65.73745382 4 68 C2.14639507 68.05195081 0.29171731 68.09515728 -1.5625 68.07446289 C-8.47237685 67.91701329 -8.47237685 67.91701329 -14.390625 71.0625 C-15.85071186 73.33059609 -17.0255305 75.48769582 -18 78 C-19.65 77.67 -21.3 77.34 -23 77 C-22.01 74.36 -21.02 71.72 -20 69 C-24.29 68.67 -28.58 68.34 -33 68 C-32.21858414 64.09292069 -31.77746864 62.2005912 -29.953125 58.9453125 C-29.31370972 57.79313232 -29.31370972 57.79313232 -28.66137695 56.61767578 C-28.19562256 55.79509277 -27.72986816 54.97250977 -27.25 54.125 C-26.7655542 53.2572998 -26.2811084 52.38959961 -25.78198242 51.49560547 C-24.19545391 48.65947454 -22.59843965 45.82943282 -21 43 C-19.88659463 41.02090316 -18.77331434 39.04173594 -17.66015625 37.0625 C-16.54460751 35.08314355 -15.42872394 33.10397576 -14.3125 31.125 C-13.76601807 30.15522217 -13.21953613 29.18544434 -12.65649414 28.1862793 C-10.27904627 23.97936287 -7.88911473 19.7855986 -5.3984375 15.64453125 C-5.01905029 15.00692871 -4.63966309 14.36932617 -4.2487793 13.71240234 C-3.2738829 12.0819683 -2.28412918 10.46044214 -1.29296875 8.83984375 C0.15513957 5.65925537 0.26183671 3.45521778 0 0 Z " fill="#957A27" transform="translate(354,106)"/>
<path d="M0 0 C5.18100335 4.69528428 8.97347943 10.31550037 13 16 C14.3260121 17.85902681 15.65376074 19.71680478 16.98168945 21.57446289 C17.85112453 22.7916082 18.71949837 24.00951246 19.58666992 25.22827148 C21.28488223 27.6135546 22.98523562 29.98118265 24.79296875 32.28515625 C26 34 26 34 26 36 C27.748573 36.02187378 27.748573 36.02187378 29.5324707 36.04418945 C33.85456122 36.10213117 38.17612847 36.17936394 42.49780273 36.26245117 C44.36881014 36.29572002 46.23991838 36.32374585 48.11108398 36.34643555 C50.79975383 36.37994588 53.48749798 36.43225865 56.17578125 36.48828125 C57.01337479 36.49467117 57.85096832 36.5010611 58.71394348 36.50764465 C64.60815592 36.65711116 64.60815592 36.65711116 66.74504089 38.52702332 C67.1591774 39.01310562 67.5733139 39.49918793 68 40 C62.3446215 40.32363503 56.6947167 40.55820576 51.03222656 40.71411133 C49.11102382 40.7791302 47.19045567 40.86759078 45.27148438 40.98071289 C29.81779976 41.86825559 29.81779976 41.86825559 25.18994141 38.79989624 C21.62316406 35.37663163 19.35072457 31.30945079 17 27 C16.03919851 25.6328651 15.05957617 24.27836647 14.046875 22.94921875 C12.90992188 21.33466797 12.90992188 21.33466797 11.75 19.6875 C6.48709376 12.26102501 6.48709376 12.26102501 1 5 C0.67 5 0.34 5 0 5 C0 3.35 0 1.7 0 0 Z " fill="#656515" transform="translate(376,135)"/>
<path d="M0 0 C0.66 0 1.32 0 2 0 C0.66652037 4.35007074 -1.03006351 8.20051256 -3.1875 12.203125 C-3.80367188 13.3478125 -4.41984375 14.4925 -5.0546875 15.671875 C-5.53373535 16.55262695 -5.53373535 16.55262695 -6.02246094 17.45117188 C-7.00312342 19.25574759 -7.9746935 21.06500614 -8.9453125 22.875 C-13.73745382 31.73745382 -13.73745382 31.73745382 -16 34 C-17.85360493 34.05195081 -19.70828269 34.09515728 -21.5625 34.07446289 C-28.47237685 33.91701329 -28.47237685 33.91701329 -34.390625 37.0625 C-35.85071186 39.33059609 -37.0255305 41.48769582 -38 44 C-39.65 43.67 -41.3 43.34 -43 43 C-42.01 40.36 -41.02 37.72 -40 35 C-43.63 34.34 -47.26 33.68 -51 33 C-51 32.67 -51 32.34 -51 32 C-49.55717651 32.14308594 -49.55717651 32.14308594 -48.08520508 32.2890625 C-30.23993751 34.45210951 -30.23993751 34.45210951 -14.17822266 28.70996094 C-9.82158619 22.99242198 -7.2788614 16.58517723 -5.00097656 9.81152344 C-3.72344329 6.22321292 -2.01942343 3.21816793 0 0 Z " fill="#967210" transform="translate(374,140)"/>
<path d="M0 0 C5.94 0 11.88 0 18 0 C19 1 19 1 19.09765625 2.84765625 C19.06510417 4.8984375 19.03255208 6.94921875 19 9 C18.67 9 18.34 9 18 9 C17.67 6.36 17.34 3.72 17 1 C11.72 1 6.44 1 1 1 C1 35.98 1 70.96 1 107 C8.92 106.505 8.92 106.505 17 106 C17.66 104.35 18.32 102.7 19 101 C19.33 101 19.66 101 20 101 C20.04254356 102.99954746 20.04080783 105.00041636 20 107 C19.67 107.33 19.34 107.66 19 108 C12.73 108 6.46 108 0 108 C0 72.36 0 36.72 0 0 Z " fill="#D79152" transform="translate(226,84)"/>
<path d="M0 0 C0.33 1.32 0.66 2.64 1 4 C0.34 4 -0.32 4 -1 4 C-1.33 5.98 -1.66 7.96 -2 10 C-2.99 10.33 -3.98 10.66 -5 11 C-4.67 13.64 -4.34 16.28 -4 19 C-3.01 19 -2.02 19 -1 19 C3 23.22857143 3 23.22857143 3 27 C4.32 27.33 5.64 27.66 7 28 C7 28.99 7 29.98 7 31 C8.65 31.66 10.3 32.32 12 33 C12.45375 32.175 12.9075 31.35 13.375 30.5 C13.91125 29.675 14.4475 28.85 15 28 C15.66 28 16.32 28 17 28 C15.66511872 31.59391114 14.03977277 34.75490696 12 38 C8.75947646 37.73058003 7.88029119 36.87308919 5.59765625 34.453125 C4.74300124 33.39308778 3.89821168 32.32503493 3.0625 31.25 C-0.09366065 27.26943262 -3.34124435 23.53514904 -7 20 C-9.92452712 17.16409491 -12.49789638 14.21699037 -15 11 C-14.67 10.34 -14.34 9.68 -14 9 C-11.69 11.64 -9.38 14.28 -7 17 C-7.33 16.01 -7.66 15.02 -8 14 C-6.95680053 11.68631178 -5.87935946 9.56773524 -4.625 7.375 C-4.295 6.776875 -3.965 6.17875 -3.625 5.5625 C-1.1932398 1.1932398 -1.1932398 1.1932398 0 0 Z " fill="#3B8D07" transform="translate(384,64)"/>
<path d="M0 0 C2.31083475 0.37777978 3.66071215 0.65064426 5.31640625 2.35546875 C5.72761719 2.96003906 6.13882812 3.56460938 6.5625 4.1875 C9.34877784 8.11776597 12.25910685 11.91263659 15.25 15.6875 C20.1228235 21.86625344 24.93514866 28.08855416 29.72216797 34.33398438 C32.01968966 37.32945401 34.3227407 40.32067115 36.625 43.3125 C37.47137672 44.41274307 38.31773308 45.5130018 39.1640625 46.61328125 C39.76992188 47.40089844 40.37578125 48.18851563 41 49 C40.34 49.66 39.68 50.32 39 51 C32.48862335 42.91112489 26.02683982 34.79478626 19.72265625 26.54296875 C17.62414155 23.80157954 15.50119465 21.08019594 13.37109375 18.36328125 C12.74122559 17.55866455 12.11135742 16.75404785 11.46240234 15.92504883 C10.22146508 14.3411077 8.97839245 12.75883657 7.73291016 11.1784668 C4.9066757 7.56645775 2.22808334 4.02492475 0 0 Z " fill="#968920" transform="translate(314,56)"/>
<path d="M0 0 C-0.67013395 3.3914178 -1.97546055 6.0112775 -3.66796875 9.015625 C-4.22516602 10.00892822 -4.78236328 11.00223145 -5.35644531 12.02563477 C-5.96069336 13.08967529 -6.56494141 14.15371582 -7.1875 15.25 C-8.1151416 16.89150024 -8.1151416 16.89150024 -9.06152344 18.56616211 C-10.70049137 21.45876263 -12.34488325 24.34810228 -13.99334717 27.23529053 C-14.99788825 28.99629801 -15.99947949 30.75895534 -17.00048828 32.52197266 C-18.90775452 35.87420911 -20.82655219 39.21952698 -22.75 42.5625 C-23.34578857 43.60889648 -23.94157715 44.65529297 -24.55541992 45.73339844 C-25.1094751 46.68891602 -25.66353027 47.64443359 -26.234375 48.62890625 C-26.96479004 49.8984314 -26.96479004 49.8984314 -27.70996094 51.19360352 C-28.13567383 51.78971436 -28.56138672 52.3858252 -29 53 C-29.66 53 -30.32 53 -31 53 C-29.56347895 48.08558588 -27.45840385 43.99761642 -24.875 39.625 C-24.50246094 38.98433594 -24.12992187 38.34367187 -23.74609375 37.68359375 C-22.83565998 36.11951523 -21.91851809 34.55934466 -21 33 C-20.34 33 -19.68 33 -19 33 C-18.90017822 32.29190186 -18.80035645 31.58380371 -18.69750977 30.85424805 C-17.89420983 27.56710085 -16.58276113 25.23012963 -14.83984375 22.33203125 C-14.21142578 21.27435547 -13.58300781 20.21667969 -12.93554688 19.12695312 C-11.94651367 17.48629883 -11.94651367 17.48629883 -10.9375 15.8125 C-9.63028291 13.63380484 -8.326697 11.45292545 -7.02734375 9.26953125 C-6.44718506 8.30635986 -5.86702637 7.34318848 -5.26928711 6.35083008 C-3.84163259 4.15195787 -3.84163259 4.15195787 -4 2 C-6.97 1.505 -6.97 1.505 -10 1 C-10 0.67 -10 0.34 -10 0 C-6.30458414 -0.95024979 -3.69541586 -0.95024979 0 0 Z " fill="#93B527" transform="translate(434,38)"/>
<path d="M0 0 C3.54574799 3.40841268 6.58158785 6.91870184 9.5 10.875 C10.27214844 11.92171875 11.04429687 12.9684375 11.83984375 14.046875 C12.90912109 15.50867188 12.90912109 15.50867188 14 17 C14.55816406 17.74765625 15.11632812 18.4953125 15.69140625 19.265625 C19 23.75249288 19 23.75249288 19 26 C6.13 26 -6.74 26 -20 26 C-20 25.67 -20 25.34 -20 25 C-10.43 25 -0.86 25 9 25 C10.33061548 17.18316784 10.33061548 17.18316784 8 11 C7.34 11 6.68 11 6 11 C5.34 9.35 4.68 7.7 4 6 C3.34 6 2.68 6 2 6 C2 5.34 2 4.68 2 4 C1.34 4 0.68 4 0 4 C0 2.68 0 1.36 0 0 Z " fill="#136A03" transform="translate(425,146)"/>
<path d="M0 0 C5.18158102 4.6958078 8.97057863 10.31676395 13 16 C13.84158047 17.17119672 14.68405677 18.34175015 15.52734375 19.51171875 C20.14413603 25.92696819 24.68782732 32.37397857 29 39 C28.01 39 27.02 39 26 39 C24.54882812 37.49389648 24.54882812 37.49389648 23.03125 35.37109375 C22.46494873 34.58968018 21.89864746 33.8082666 21.31518555 33.00317383 C20.71617432 32.15650146 20.11716309 31.3098291 19.5 30.4375 C18.88358643 29.58373779 18.26717285 28.72997559 17.63208008 27.8503418 C16.36492957 26.09475762 15.10168672 24.33634662 13.84228516 22.57519531 C11.14533684 18.80532905 8.41926348 15.05716972 5.6875 11.3125 C5.22601563 10.67175537 4.76453125 10.03101074 4.2890625 9.37084961 C3.21709245 7.89586636 2.11225298 6.44484902 1 5 C0.67 5 0.34 5 0 5 C0 3.35 0 1.7 0 0 Z " fill="#8C7B20" transform="translate(376,135)"/>
<path d="M0 0 C0.66 0 1.32 0 2 0 C1.375 2.375 1.375 2.375 0 6 C-0.27585937 6.83144531 -0.55171875 7.66289062 -0.8359375 8.51953125 C-2.22477133 11.70266383 -3.40658573 13.6612913 -6 16 C-11.82316927 17.28432933 -17.45360768 16.94478173 -23.375 16.625 C-24.98553958 16.5748022 -26.59622873 16.52918117 -28.20703125 16.48828125 C-32.14172695 16.37842265 -36.06922073 16.20614866 -40 16 C-39.04901734 14.01729088 -38.08899297 12.03891621 -37.125 10.0625 C-36.32449219 8.40927734 -36.32449219 8.40927734 -35.5078125 6.72265625 C-34 4 -34 4 -32 3 C-32.52268466 5.76276177 -33.10869587 8.3260876 -34 11 C-34.66 11 -35.32 11 -36 11 C-36 12.32 -36 13.64 -36 15 C-26.43 15 -16.86 15 -7 15 C-6.67 12.03 -6.34 9.06 -6 6 C-4.35 5.67 -2.7 5.34 -1 5 C-0.67 3.35 -0.34 1.7 0 0 Z " fill="#195801" transform="translate(363,156)"/>
<path d="M0 0 C0.66 0 1.32 0 2 0 C2.66 0.99 3.32 1.98 4 3 C4.99 3.33 5.98 3.66 7 4 C8.2890625 6.08203125 8.2890625 6.08203125 9.625 8.8125 C13.07796055 15.45683317 17.38677785 21.12583047 22 27 C21.67 27.66 21.34 28.32 21 29 C20.37351562 28.14535156 19.74703125 27.29070312 19.1015625 26.41015625 C18.27625386 25.29411389 17.45072138 24.17823702 16.625 23.0625 C16.2125 22.49853516 15.8 21.93457031 15.375 21.35351562 C13.1230631 18.19151048 13.1230631 18.19151048 10 16 C9.67 16.66 9.34 17.32 9 18 C8.649375 16.88625 8.29875 15.7725 7.9375 14.625 C7.19669368 12.66818521 7.19669368 12.66818521 6 11 C2.44107712 9.46954015 2.44107712 9.46954015 -1 9 C-0.67 6.03 -0.34 3.06 0 0 Z " fill="#48740F" transform="translate(354,106)"/>
<path d="M0 0 C5.4441714 -0.17353916 10.88672099 -0.30029559 16.33300781 -0.38452148 C18.18387913 -0.41964208 20.03455735 -0.46735189 21.88476562 -0.52807617 C24.55126591 -0.61337551 27.21519309 -0.6527688 29.8828125 -0.68359375 C30.70492218 -0.71972275 31.52703186 -0.75585175 32.37405396 -0.79307556 C35.88816781 -0.79545649 38.10556441 -0.72268521 40.89935303 1.53463745 C45 6.15721083 45 6.15721083 45 9 C44.34 9 43.68 9 43 9 C43 8.34 43 7.68 43 7 C41.68 7.33 40.36 7.66 39 8 C39 7.01 39 6.02 39 5 C38.01 5.33 37.02 5.66 36 6 C36.33 4.35 36.66 2.7 37 1 C21.655 1.495 21.655 1.495 6 2 C5.67 3.32 5.34 4.64 5 6 C5.66 6 6.32 6 7 6 C7.33 7.65 7.66 9.3 8 11 C2.19794344 5.35475578 2.19794344 5.35475578 0 2 C0 1.34 0 0.68 0 0 Z " fill="#408401" transform="translate(316,54)"/>
<path d="M0 0 C1.28154213 -0.00956978 1.28154213 -0.00956978 2.588974 -0.01933289 C3.51811111 -0.02044571 4.44724823 -0.02155853 5.40454102 -0.02270508 C6.35281265 -0.02603348 7.30108429 -0.02936188 8.27809143 -0.03279114 C10.28809116 -0.03786452 12.29809934 -0.04019934 14.30810547 -0.04003906 C17.39182346 -0.04222455 20.47518333 -0.06037316 23.55883789 -0.0793457 C25.50740437 -0.08227967 27.45597256 -0.08426444 29.40454102 -0.08520508 C30.79521034 -0.09598335 30.79521034 -0.09598335 32.213974 -0.10697937 C33.07148758 -0.10390274 33.92900116 -0.10082611 34.8125 -0.09765625 C35.56893295 -0.09908127 36.32536591 -0.10050629 37.10472107 -0.10197449 C38.97094727 0.14526367 38.97094727 0.14526367 40.97094727 2.14526367 C40.64094727 3.13526367 40.31094727 4.12526367 39.97094727 5.14526367 C39.31094727 4.48526367 38.65094727 3.82526367 37.97094727 3.14526367 C35.03434517 2.89932278 32.18532614 2.77151115 29.24438477 2.73120117 C27.95016098 2.70215195 27.95016098 2.70215195 26.62979126 2.67251587 C23.8686111 2.61264163 21.10738943 2.56630369 18.34594727 2.52026367 C16.47613722 2.48209108 14.60634489 2.44303978 12.73657227 2.40307617 C8.14817417 2.30693376 3.55969376 2.22293201 -1.02905273 2.14526367 C-1.02905273 2.80526367 -1.02905273 3.46526367 -1.02905273 4.14526367 C-2.01905273 4.14526367 -3.00905273 4.14526367 -4.02905273 4.14526367 C-4.35905273 3.15526367 -4.68905273 2.16526367 -5.02905273 1.14526367 C-3.50173163 -0.38205743 -2.1290125 0.01073976 0 0 Z " fill="#968910" transform="translate(317.029052734375,51.854736328125)"/>
<path d="M0 0 C0.66 0.33 1.32 0.66 2 1 C2.08886184 4.19902639 1.91058531 6.92677456 1 10 C2.051875 9.67 3.10375 9.34 4.1875 9 C7.38873357 8.16033218 9.7411008 7.80249096 13 8 C8.85861287 10.76092475 4.46393087 12.79702113 0 15 C-1.98 11.04 -3.96 7.08 -6 3 C-4.02 2.01 -2.04 1.02 0 0 Z " fill="#DE9042" transform="translate(141,93)"/>
<path d="M0 0 C0.66 0 1.32 0 2 0 C0.66652037 4.35007074 -1.03006351 8.20051256 -3.1875 12.203125 C-3.80367188 13.3478125 -4.41984375 14.4925 -5.0546875 15.671875 C-5.37405273 16.25904297 -5.69341797 16.84621094 -6.02246094 17.45117188 C-7.00312342 19.25574759 -7.9746935 21.06500614 -8.9453125 22.875 C-13.73745382 31.73745382 -13.73745382 31.73745382 -16 34 C-16.99 33.67 -17.98 33.34 -19 33 C-18.34 33 -17.68 33 -17 33 C-16.7417041 32.14390137 -16.4834082 31.28780273 -16.21728516 30.40576172 C-14.94894499 26.85715655 -13.36859065 23.79155963 -11.5234375 20.5078125 C-11.19332672 19.91700897 -10.86321594 19.32620544 -10.52310181 18.71749878 C-9.478532 16.85059425 -8.42690967 14.98777679 -7.375 13.125 C-6.66098645 11.85182702 -5.94744012 10.5783919 -5.234375 9.3046875 C-3.49497356 6.20007649 -1.74922862 3.09908708 0 0 Z " fill="#908321" transform="translate(374,140)"/>
<path d="M0 0 C0 0.99 0 1.98 0 3 C-4.76981924 7.65625212 -8.82076736 9.82980553 -15.6484375 10.1953125 C-17.49308594 10.16050781 -17.49308594 10.16050781 -19.375 10.125 C-20.62023437 10.10695312 -21.86546875 10.08890625 -23.1484375 10.0703125 C-24.55996094 10.03550781 -24.55996094 10.03550781 -26 10 C-26 9.34 -26 8.68 -26 8 C-26.99 8 -27.98 8 -29 8 C-29 8.99 -29 9.98 -29 11 C-29.66 11 -30.32 11 -31 11 C-31 9.35 -31 7.7 -31 6 C-32.32 5.67 -33.64 5.34 -35 5 C-34.67 3.68 -34.34 2.36 -34 1 C-33.29423828 1.52400391 -33.29423828 1.52400391 -32.57421875 2.05859375 C-31.64029297 2.74115234 -31.64029297 2.74115234 -30.6875 3.4375 C-30.07261719 3.88996094 -29.45773438 4.34242188 -28.82421875 4.80859375 C-23.59918387 8.22108976 -16.97593049 7.52210018 -11 7 C-6.46009356 5.5825949 -3.25108082 3.43826426 0 0 Z " fill="#D58E4C" transform="translate(285,139)"/>
<path d="M0 0 C1.98 0.66 3.96 1.32 6 2 C6 2.66 6 3.32 6 4 C6.99 4.33 7.98 4.66 9 5 C8.34 5 7.68 5 7 5 C7.495 5.78375 7.99 6.5675 8.5 7.375 C10 10 10 10 10 12 C10.66 12 11.32 12 12 12 C13.22029573 13.87013996 14.35204064 15.79850747 15.4375 17.75 C17.45014217 21.34928232 19.43391317 24.76688755 22 28 C21.01 28 20.02 28 19 28 C17.5612793 26.3828125 17.5612793 26.3828125 16.07421875 24.125 C15.24954102 22.89330078 15.24954102 22.89330078 14.40820312 21.63671875 C13.55645508 20.33154297 13.55645508 20.33154297 12.6875 19 C11.56819406 17.31131363 10.44711312 15.62380237 9.32421875 13.9375 C8.77685059 13.1125 8.22948242 12.2875 7.66552734 11.4375 C5.5726854 8.37462489 3.34940642 5.42762938 1.07739258 2.49609375 C0 1 0 1 0 0 Z " fill="#1D6801" transform="translate(383,143)"/>
<path d="M0 0 C3.92468512 3.70664706 7.06793132 7.91805367 10.2890625 12.22265625 C12.67684965 15.37951595 15.12117243 18.2811073 18 21 C18.33 19.68 18.66 18.36 19 17 C19.66 17 20.32 17 21 17 C20.67 18.093125 20.34 19.18625 20 20.3125 C18.86913351 23.84578884 18.86913351 23.84578884 19 27 C17.2236727 25.10907094 15.4539586 23.21261247 13.6875 21.3125 C13.18798828 20.78205078 12.68847656 20.25160156 12.17382812 19.70507812 C9.33267152 16.63813424 7.06157194 13.66297157 5 10 C3.69067799 8.1927668 2.34637348 6.41916543 0.98828125 4.6484375 C0 3 0 3 0 0 Z " fill="#869019" transform="translate(358,55)"/>
<path d="M0 0 C10.89 0 21.78 0 33 0 C31.35848487 4.10378782 29.61539709 7.53701601 27.375 11.3125 C26.74335938 12.38113281 26.11171875 13.44976562 25.4609375 14.55078125 C24.73777344 15.76314453 24.73777344 15.76314453 24 17 C23.67 15.68 23.34 14.36 23 13 C23.66 13 24.32 13 25 13 C25.103125 11.88625 25.20625 10.7725 25.3125 9.625 C25.539375 8.42875 25.76625 7.2325 26 6 C26.99 5.34 27.98 4.68 29 4 C29.33 3.01 29.66 2.02 30 1 C20.43 1 10.86 1 1 1 C1 1.66 1 2.32 1 3 C0.34 2.67 -0.32 2.34 -1 2 C-0.67 1.34 -0.34 0.68 0 0 Z " fill="#35C303" transform="translate(398,40)"/>
<path d="M0 0 C6.6 0 13.2 0 20 0 C20 0.33 20 0.66 20 1 C15.38 1.33 10.76 1.66 6 2 C5.34 3.65 4.68 5.3 4 7 C4.66 7 5.32 7 6 7 C6.33 8.65 6.66 10.3 7 12 C6.01 12 5.02 12 4 12 C4 11.34 4 10.68 4 10 C3.34 10 2.68 10 2 10 C1.67 8.35 1.34 6.7 1 5 C0.34 5 -0.32 5 -1 5 C-0.67 3.35 -0.34 1.7 0 0 Z " fill="#068803" transform="translate(322,55)"/>
<path d="M0 0 C1.1446875 0.12375 1.1446875 0.12375 2.3125 0.25 C1.9825 2.23 1.6525 4.21 1.3125 6.25 C2.3025 6.58 3.2925 6.91 4.3125 7.25 C4.3125 7.91 4.3125 8.57 4.3125 9.25 C0.6825 9.25 -2.9475 9.25 -6.6875 9.25 C-4.92920616 0.45853081 -4.92920616 0.45853081 0 0 Z " fill="#BD7217" transform="translate(418.6875,29.75)"/>
<path d="M0 0 C1.65 0.33 3.3 0.66 5 1 C4.38003922 2.29409289 3.75383647 3.58519673 3.125 4.875 C2.77695312 5.59429687 2.42890625 6.31359375 2.0703125 7.0546875 C1 9 1 9 -1 11 C-3.625 10.625 -3.625 10.625 -6 10 C-4.68 7.36 -3.36 4.72 -2 2 C-1.34 2 -0.68 2 0 2 C0 1.34 0 0.68 0 0 Z " fill="#E97C10" transform="translate(337,173)"/>
<path d="M0 0 C2.31 0.33 4.62 0.66 7 1 C7 1.66 7 2.32 7 3 C10.27626375 3.9821994 13.22788119 4.11580914 16.640625 4.09765625 C17.71054688 4.09443359 18.78046875 4.09121094 19.8828125 4.08789062 C20.99398437 4.07951172 22.10515625 4.07113281 23.25 4.0625 C24.37664062 4.05798828 25.50328125 4.05347656 26.6640625 4.04882812 C29.44276217 4.03705397 32.22135409 4.0206084 35 4 C31.3437577 7.6562423 26.33291337 7.20617906 21.375 7.3125 C14.27728635 7.26771947 6.6607419 6.32722528 1.19921875 1.36328125 C0.80347656 0.91339844 0.40773437 0.46351563 0 0 Z " fill="#CE8A4D" transform="translate(140,158)"/>
<path d="M0 0 C0.33 0.66 0.66 1.32 1 2 C-0.3016313 4.59426514 -1.65660394 7.06483847 -3.125 9.5625 C-3.95977898 11.01163606 -4.7944152 12.46085437 -5.62890625 13.91015625 C-6.03641113 14.61156738 -6.44391602 15.31297852 -6.86376953 16.03564453 C-8.29344982 18.50732644 -9.68262489 21.00022625 -11.0625 23.5 C-11.44535156 24.1909375 -11.82820313 24.881875 -12.22265625 25.59375 C-12.47917969 26.0578125 -12.73570312 26.521875 -13 27 C-13.80796608 24.6779055 -14.14602407 23.42493862 -13.33496094 21.06469727 C-12.97176758 20.40526123 -12.60857422 19.7458252 -12.234375 19.06640625 C-11.83863281 18.33486328 -11.44289063 17.60332031 -11.03515625 16.84960938 C-10.61105469 16.09486328 -10.18695313 15.34011719 -9.75 14.5625 C-9.34136719 13.81162109 -8.93273437 13.06074219 -8.51171875 12.28710938 C-7.35933769 10.18058644 -6.18492433 8.08835021 -5 6 C-4.44828125 5.01902344 -3.8965625 4.03804688 -3.328125 3.02734375 C-2 1 -2 1 0 0 Z " fill="#8E781D" transform="translate(354,114)"/>
<path d="M0 0 C-1.56020867 0.65134925 -3.12328579 1.29582964 -4.6875 1.9375 C-5.55761719 2.29714844 -6.42773438 2.65679687 -7.32421875 3.02734375 C-16.04551197 6.19756567 -26.30486204 6.23540017 -35 3 C-32.09330538 2.14694832 -29.68951127 1.92710285 -26.671875 2.12109375 C-25.47304688 2.19360352 -25.47304688 2.19360352 -24.25 2.26757812 C-23.425 2.32365234 -22.6 2.37972656 -21.75 2.4375 C-20.90953125 2.48970703 -20.0690625 2.54191406 -19.203125 2.59570312 C-17.1350648 2.72495689 -15.0674778 2.86174274 -13 3 C-13 2.34 -13 1.68 -13 1 C-11.39796533 0.63631108 -9.79325797 0.28438048 -8.1875 -0.0625 C-7.29417969 -0.25972656 -6.40085937 -0.45695313 -5.48046875 -0.66015625 C-3 -1 -3 -1 0 0 Z " fill="#D08D4F" transform="translate(291,160)"/>
<path d="M0 0 C0.66 0 1.32 0 2 0 C3.35693359 1.46533203 3.35693359 1.46533203 4.8984375 3.5078125 C5.46046875 4.24773437 6.0225 4.98765625 6.6015625 5.75 C7.18679688 6.53375 7.77203125 7.3175 8.375 8.125 C8.9525 8.88554688 9.53 9.64609375 10.125 10.4296875 C13.22564473 14.53556408 16.20036185 18.68331654 19 23 C16 23 16 23 14.40600586 21.42700195 C13.84792236 20.70472412 13.28983887 19.98244629 12.71484375 19.23828125 C12.10189453 18.44873047 11.48894531 17.65917969 10.85742188 16.84570312 C10.22384766 16.00974609 9.59027344 15.17378906 8.9375 14.3125 C8.30005859 13.49587891 7.66261719 12.67925781 7.00585938 11.83789062 C4.03953036 7.97759944 1.66527485 4.61102404 0 0 Z " fill="#8C7E21" transform="translate(336,83)"/>
<path d="M0 0 C0.66 0.33 1.32 0.66 2 1 C0.31326082 5.49797113 -1.81673892 9.72886302 -4 14 C-3.484375 14.5775 -2.96875 15.155 -2.4375 15.75 C-1 18 -1 18 -1.3125 20.25 C-1.539375 20.8275 -1.76625 21.405 -2 22 C-7.57142857 15.71428571 -7.57142857 15.71428571 -8 12 C-7.34 12 -6.68 12 -6 12 C-5.7525 11.319375 -5.505 10.63875 -5.25 9.9375 C-3.75802092 6.43134917 -1.93164489 3.28379632 0 0 Z " fill="#878A16" transform="translate(402,90)"/>
<path d="M0 0 C1.20785156 -0.01417969 2.41570312 -0.02835937 3.66015625 -0.04296875 C6.72492498 0.17255134 8.37745415 0.57230898 10.9375 2.1875 C9.82632812 2.24808594 8.71515625 2.30867188 7.5703125 2.37109375 C-0.330387 2.81243888 -8.19526558 3.31336284 -16.0625 4.1875 C-16.0625 4.8475 -16.0625 5.5075 -16.0625 6.1875 C-17.3825 5.8575 -18.7025 5.5275 -20.0625 5.1875 C-18.83743102 4.53392722 -17.60720484 3.89001767 -16.375 3.25 C-15.69050781 2.89035156 -15.00601563 2.53070313 -14.30078125 2.16015625 C-9.61377478 0.12339428 -5.06544807 0.02708796 0 0 Z " fill="#D4914E" transform="translate(270.0625,82.8125)"/>
<path d="M0 0 C5.19453651 1.41669178 8.66182883 4.92108191 12 9 C12 9.66 12 10.32 12 11 C5.25 11.125 5.25 11.125 3 10 C3.33 8.68 3.66 7.36 4 6 C3.01 5.34 2.02 4.68 1 4 C0.3125 1.875 0.3125 1.875 0 0 Z " fill="#E38E3E" transform="translate(187,87)"/>
<path d="M0 0 C7.07811449 3.14243876 11.28092813 9.95319071 14 17 C14.75 20.5 14.75 20.5 15 23 C14.34 23 13.68 23 13 23 C12.51891725 21.58398286 12.04021859 20.16715563 11.5625 18.75 C11.29566406 17.96109375 11.02882813 17.1721875 10.75390625 16.359375 C10.08045292 14.25178012 9.50849405 12.15246027 9 10 C8.01 10 7.02 10 6 10 C5.67 8.68 5.34 7.36 5 6 C3.68 5.67 2.36 5.34 1 5 C0.67 3.35 0.34 1.7 0 0 Z " fill="#D5924C" transform="translate(294,91)"/>
<path d="M0 0 C0 0.99 0 1.98 0 3 C-1 4 -2 5 -3 6 C-3.12375 6.66 -3.2475 7.32 -3.375 8 C-4.29926168 10.95763739 -6.3948011 11.47500552 -9 13 C-10.32793606 15.06700655 -10.32793606 15.06700655 -11 17 C-11.66 17 -12.32 17 -13 17 C-13 17.99 -13 18.98 -13 20 C-13.66 20 -14.32 20 -15 20 C-12.45608447 11.85947031 -6.04473855 5.7228294 0 0 Z " fill="#DB934D" transform="translate(46,69)"/>
<path d="M0 0 C3.63 0.33 7.26 0.66 11 1 C11 1.66 11 2.32 11 3 C15.95 2.67 20.9 2.34 26 2 C26 2.66 26 3.32 26 4 C17.01346801 6.99551066 8.38288479 4.69639015 0 1 C0 0.67 0 0.34 0 0 Z " fill="#CE8848" transform="translate(66,144)"/>
<path d="M0 0 C4 0 4 0 6.25 2 C6.8275 2.66 7.405 3.32 8 4 C8 3.01 8 2.02 8 1 C12.455 0.505 12.455 0.505 17 0 C16.01 0.495 16.01 0.495 15 1 C15 1.66 15 2.32 15 3 C10.91611058 6.97044805 10.91611058 6.97044805 8.0625 7.0625 C4.94598671 5.45702345 2.5959663 3.35996937 0 1 C0 0.67 0 0.34 0 0 Z " fill="#D89143" transform="translate(101,81)"/>
<path d="M0 0 C0.66 0 1.32 0 2 0 C2.66 0.99 3.32 1.98 4 3 C4.99 3.33 5.98 3.66 7 4 C8.203125 5.77734375 8.203125 5.77734375 9.25 7.9375 C9.60578125 8.64777344 9.9615625 9.35804687 10.328125 10.08984375 C10.54984375 10.72019531 10.7715625 11.35054687 11 12 C10.67 12.66 10.34 13.32 10 14 C8.02 11.36 6.04 8.72 4 6 C3.01 6.99 2.02 7.98 1 9 C0.34 9 -0.32 9 -1 9 C-0.67 6.03 -0.34 3.06 0 0 Z " fill="#816E16" transform="translate(354,106)"/>
<path d="M0 0 C14.19 0 28.38 0 43 0 C43 0.33 43 0.66 43 1 C29.47 1 15.94 1 2 1 C2 1.66 2 2.32 2 3 C1.01 2.67 0.02 2.34 -1 2 C-0.67 1.34 -0.34 0.68 0 0 Z " fill="#98721C" transform="translate(313,52)"/>
<path d="M0 0 C1.32 0.33 2.64 0.66 4 1 C4 1.99 4 2.98 4 4 C6.475 4.99 6.475 4.99 9 6 C9.45375 5.175 9.9075 4.35 10.375 3.5 C10.91125 2.675 11.4475 1.85 12 1 C12.66 1 13.32 1 14 1 C12.66749209 4.5875213 11.169283 7.8364623 9 11 C8.34 11 7.68 11 7 11 C5.2734375 8.84765625 5.2734375 8.84765625 3.375 6.0625 C2.74335938 5.14597656 2.11171875 4.22945313 1.4609375 3.28515625 C0 1 0 1 0 0 Z " fill="#1C9802" transform="translate(387,91)"/>
<path d="M0 0 C0.99 0 1.98 0 3 0 C4.82421875 2.1875 4.82421875 2.1875 6.6875 5 C7.31011719 5.928125 7.93273437 6.85625 8.57421875 7.8125 C9.04472656 8.534375 9.51523437 9.25625 10 10 C9.67 10.66 9.34 11.32 9 12 C6.0625 11.625 6.0625 11.625 3 11 C2.67 10.34 2.34 9.68 2 9 C2.99 9 3.98 9 5 9 C3.35 6.03 1.7 3.06 0 0 Z " fill="#8D7E10" transform="translate(439,163)"/>
<path d="M0 0 C2.51840147 2.18991432 3.51334387 3.6907383 4 7 C4.03786901 8.66623639 4.04627845 10.33397597 4 12 C3.34 12 2.68 12 2 12 C1.608125 11.0925 1.21625 10.185 0.8125 9.25 C-1.0787372 5.85881606 -2.8554673 4.20967163 -6 2 C-4.02 1.34 -2.04 0.68 0 0 Z " fill="#E28F43" transform="translate(181,99)"/>
<path d="M0 0 C3.62805874 3.4927315 6.76705926 7.09471524 9.8125 11.125 C10.60269531 12.15882813 11.39289063 13.19265625 12.20703125 14.2578125 C14 17 14 17 14 20 C12.99406757 18.8803014 11.9954151 17.7540588 11 16.625 C10.1646875 15.68527344 10.1646875 15.68527344 9.3125 14.7265625 C8 13 8 13 8 11 C7.34 11 6.68 11 6 11 C5.34 9.35 4.68 7.7 4 6 C3.34 6 2.68 6 2 6 C2 5.34 2 4.68 2 4 C1.34 4 0.68 4 0 4 C0 2.68 0 1.36 0 0 Z " fill="#276C01" transform="translate(425,146)"/>
<path d="M0 0 C0.33 0 0.66 0 1 0 C1 2.97 1 5.94 1 9 C-1.81256281 9.02684312 -4.62487241 9.04676188 -7.4375 9.0625 C-8.23994141 9.07087891 -9.04238281 9.07925781 -9.86914062 9.08789062 C-11.91295221 9.0965143 -13.95683902 9.0522815 -16 9 C-17 8 -17 8 -17.0625 4.9375 C-17.041875 3.968125 -17.02125 2.99875 -17 2 C-16.34 2 -15.68 2 -15 2 C-14.34 3.65 -13.68 5.3 -13 7 C-8.71 7.33 -4.42 7.66 0 8 C0 5.36 0 2.72 0 0 Z " fill="#D29054" transform="translate(202,155)"/>
<path d="M0 0 C0.66 0 1.32 0 2 0 C0.45454854 5.47932789 -2.15543212 10.11429181 -5 15 C-4.01 15.33 -3.02 15.66 -2 16 C-3.65 16 -5.3 16 -7 16 C-6.40165275 11.85701333 -4.99335715 8.81805623 -2.9375 5.1875 C-2.11572266 3.72376953 -2.11572266 3.72376953 -1.27734375 2.23046875 C-0.85582031 1.49441406 -0.43429687 0.75835937 0 0 Z " fill="#A17724" transform="translate(328,158)"/>
<path d="M0 0 C0 0.33 0 0.66 0 1 C-5.89989295 2.29295526 -11.70970129 3.24979223 -17.7265625 3.78125 C-20.51121805 4.04918937 -23.24953298 4.49333502 -26 5 C-20.0396088 -0.9603912 -7.92826831 -0.42898446 0 0 Z " fill="#D58F52" transform="translate(85,58)"/>
<path d="M0 0 C5.05663427 3.42066436 7.83507897 7.91002391 11 13 C10.67 13.66 10.34 14.32 10 15 C7.525 14.01 7.525 14.01 5 13 C5.33 11.35 5.66 9.7 6 8 C5.34 8 4.68 8 4 8 C2.21694476 5.36107824 1.00940379 3.02821137 0 0 Z " fill="#1D7B02" transform="translate(385,93)"/>
<path d="M0 0 C0 0.66 0 1.32 0 2 C-5.80766296 3.5056904 -10.9981863 4.21824777 -17 4 C-12.44630034 -0.55369966 -6.03058046 -0.21159931 0 0 Z " fill="#D28D49" transform="translate(160,117)"/>
<path d="M0 0 C1.859375 0.90234375 1.859375 0.90234375 3.859375 3.90234375 C1.549375 3.90234375 -0.760625 3.90234375 -3.140625 3.90234375 C-3.470625 4.56234375 -3.800625 5.22234375 -4.140625 5.90234375 C-4.800625 6.56234375 -5.460625 7.22234375 -6.140625 7.90234375 C-8.265625 7.52734375 -8.265625 7.52734375 -10.140625 6.90234375 C-8.90509224 5.69979851 -7.65160161 4.51568143 -6.390625 3.33984375 C-5.69453125 2.67855469 -4.9984375 2.01726562 -4.28125 1.3359375 C-2.140625 -0.09765625 -2.140625 -0.09765625 0 0 Z " fill="#D08F49" transform="translate(110.140625,135.09765625)"/>
<path d="M0 0 C-0.66 2.31 -1.32 4.62 -2 7 C-6.29 6.01 -10.58 5.02 -15 4 C-15 3.67 -15 3.34 -15 3 C-7.57142857 2.85714286 -7.57142857 2.85714286 -4 4 C-4 3.01 -4 2.02 -4 1 C-2 0 -2 0 0 0 Z " fill="#DC8E47" transform="translate(282,96)"/>
<path d="M0 0 C3.44620861 1.1487362 4.09169196 2.07581642 6.1875 4.9375 C6.71730469 5.64777344 7.24710937 6.35804688 7.79296875 7.08984375 C9 9 9 9 9 11 C6.53955077 10.61095461 5.27840279 10.28572918 3.515625 8.4765625 C3.09796875 7.86554688 2.6803125 7.25453125 2.25 6.625 C1.82203125 6.01914063 1.3940625 5.41328125 0.953125 4.7890625 C0 3 0 3 0 0 Z " fill="#195D00" transform="translate(364,122)"/>
<path d="M0 0 C2.17581687 2.84881728 4.20937999 5.76084088 6.1875 8.75 C6.71730469 9.54921875 7.24710938 10.3484375 7.79296875 11.171875 C8.19128906 11.77515625 8.58960938 12.3784375 9 13 C7.02 13.33 5.04 13.66 3 14 C3.33 12.02 3.66 10.04 4 8 C3.34 8 2.68 8 2 8 C0.23537317 4.91190305 0 3.76687864 0 0 Z " fill="#DB8E49" transform="translate(49,126)"/>
<path d="M0 0 C3.465 1.485 3.465 1.485 7 3 C7 3.33 7 3.66 7 4 C3 5.33333333 -1 6.66666667 -5 8 C-5 7.34 -5 6.68 -5 6 C-4.34 5.67 -3.68 5.34 -3 5 C-1.9590934 3.35857037 -0.95495674 1.69287785 0 0 Z " fill="#DC8E47" transform="translate(258,97)"/>
<path d="M0 0 C3.17538332 0.34021964 4.02276865 1.02466604 6.25 3.4375 C8 6 8 6 8 8 C7.34 8 6.68 8 6 8 C6 7.34 6 6.68 6 6 C4.68 6.33 3.36 6.66 2 7 C2 6.01 2 5.02 2 4 C1.01 4.33 0.02 4.66 -1 5 C-0.67 3.35 -0.34 1.7 0 0 Z " fill="#208802" transform="translate(353,55)"/>
<path d="M0 0 C0.93065133 2.60582371 1.14917407 3.64198224 0.0625 6.25 C-0.4634375 7.11625 -0.4634375 7.11625 -1 8 C-1.66 8 -2.32 8 -3 8 C-2.67 9.65 -2.34 11.3 -2 13 C-3.65 13 -5.3 13 -7 13 C-6.02325896 11.01963514 -5.04354018 9.04073867 -4.0625 7.0625 C-3.51722656 5.96035156 -2.97195313 4.85820312 -2.41015625 3.72265625 C-1 1 -1 1 0 0 Z " fill="#385C00" transform="translate(330,159)"/>
<path d="M0 0 C2.0625 0.4375 2.0625 0.4375 4 1 C3.13375 1.928125 3.13375 1.928125 2.25 2.875 C-0.69238307 6.96164315 -2.28191268 11.29353741 -4 16 C-5.41131097 12.23948152 -4.5449072 9.97977756 -3.125 6.3125 C-2.75632813 5.33925781 -2.38765625 4.36601563 -2.0078125 3.36328125 C-1 1 -1 1 0 0 Z " fill="#D88F53" transform="translate(52,87)"/>
<path d="M0 0 C4.95258714 3.77339973 8.43679155 7.90789714 12 13 C11.67 13.66 11.34 14.32 11 15 C9.16064138 12.87996003 7.32843267 10.75442773 5.5 8.625 C4.71302734 7.72007813 4.71302734 7.72007813 3.91015625 6.796875 C0 2.2265625 0 2.2265625 0 0 Z " fill="#669919" transform="translate(382,87)"/>
<path d="M0 0 C3.88975419 3.59054233 6.89732195 7.73898882 10 12 C7 12 7 12 5.4296875 10.64453125 C0.27714005 4.57281076 0.27714005 4.57281076 0 0 Z " fill="#8B8623" transform="translate(358,55)"/>
<path d="M0 0 C0.33 1.32 0.66 2.64 1 4 C1.99 4 2.98 4 4 4 C3.34 5.32 2.68 6.64 2 8 C0.35 7.67 -1.3 7.34 -3 7 C-2.01 4.69 -1.02 2.38 0 0 Z " fill="#DB7A1C" transform="translate(334,176)"/>
<path d="M0 0 C2.8842454 0.34485543 3.8207818 0.78255407 5.703125 3.06640625 C6.21359375 3.89011719 6.7240625 4.71382812 7.25 5.5625 C8.03117187 6.80193359 8.03117187 6.80193359 8.828125 8.06640625 C9.21484375 8.70449219 9.6015625 9.34257812 10 10 C9.01 10 8.02 10 7 10 C5.17578125 8.06640625 5.17578125 8.06640625 3.3125 5.5625 C2.68988281 4.73878906 2.06726563 3.91507813 1.42578125 3.06640625 C0 1 0 1 0 0 Z " fill="#937022" transform="translate(395,164)"/>
<path d="M0 0 C3.76368646 1.25456215 4.43585442 2.69104369 6.625 5.9375 C7.23601562 6.83339844 7.84703125 7.72929687 8.4765625 8.65234375 C10 11 10 11 11 13 C10.01 13 9.02 13 8 13 C5.95703125 10.6640625 5.95703125 10.6640625 3.8125 7.625 C2.73935547 6.12839844 2.73935547 6.12839844 1.64453125 4.6015625 C0 2 0 2 0 0 Z " fill="#2C6300" transform="translate(394,158)"/>
<path d="M0 0 C2.97 0.495 2.97 0.495 6 1 C3.25576034 3.94751667 0.63780345 6.22773678 -3 8 C-3.99 7.67 -4.98 7.34 -6 7 C-4.75 5.5 -4.75 5.5 -3 4 C-1.68 4 -0.36 4 1 4 C0.67 2.68 0.34 1.36 0 0 Z " fill="#DC954A" transform="translate(111,152)"/>
<path d="M0 0 C0.66 0 1.32 0 2 0 C2 0.66 2 1.32 2 2 C2.66 2 3.32 2 4 2 C4 1.34 4 0.68 4 0 C4.66 0 5.32 0 6 0 C5.64950425 3.24208567 5.43778819 4.61527704 2.9375 6.8125 C2.298125 7.204375 1.65875 7.59625 1 8 C0.67 5.36 0.34 2.72 0 0 Z " fill="#DB8B47" transform="translate(116,145)"/>
<path d="M0 0 C1.33333333 0.33333333 2.66666667 0.66666667 4 1 C5.0828125 1.185625 5.0828125 1.185625 6.1875 1.375 C7.0846875 1.684375 7.0846875 1.684375 8 2 C8.33 2.99 8.66 3.98 9 5 C2.375 4.25 2.375 4.25 -1 2 C-0.67 1.34 -0.34 0.68 0 0 Z " fill="#F08B2E" transform="translate(95,74)"/>
<path d="M0 0 C-0.33 0.99 -0.66 1.98 -1 3 C-0.34 3.33 0.32 3.66 1 4 C1 4.66 1 5.32 1 6 C-2.91211733 4.84414715 -5.8745041 3.64465038 -9 1 C-5.94152152 0.45627049 -3.11227195 0 0 0 Z " fill="#D58B49" transform="translate(60,156)"/>
<path d="M0 0 C1 3 1 3 0.109375 5.4453125 C-0.33921875 6.32960938 -0.7878125 7.21390625 -1.25 8.125 C-1.90742188 9.45917969 -1.90742188 9.45917969 -2.578125 10.8203125 C-4 13 -4 13 -7 14 C-5.23570801 9.02790438 -2.6060834 4.56561939 0 0 Z " fill="#2F7001" transform="translate(353,118)"/>
<path d="M0 0 C0.33 1.32 0.66 2.64 1 4 C0.34 4 -0.32 4 -1 4 C-1.33 5.98 -1.66 7.96 -2 10 C-2.99 10.33 -3.98 10.66 -5 11 C-4.46884894 6.48521602 -2.63379708 3.65333143 0 0 Z " fill="#27A103" transform="translate(384,64)"/>
<path d="M0 0 C-0.33 1.32 -0.66 2.64 -1 4 C-3.97 4.66 -6.94 5.32 -10 6 C-4.4 0 -4.4 0 0 0 Z " fill="#D99046" transform="translate(58,63)"/>
<path d="M0 0 C1.32 0.33 2.64 0.66 4 1 C3.67 2.32 3.34 3.64 3 5 C3.66 5 4.32 5 5 5 C5.33 6.65 5.66 8.3 6 10 C2.46413986 6.82679218 0.41421969 4.83256305 0 0 Z " fill="#378D01" transform="translate(318,55)"/>
<path d="M0 0 C0.66 0 1.32 0 2 0 C1.42365861 4.75481646 -0.55068521 7.97048212 -3 12 C-3.33 10.68 -3.66 9.36 -4 8 C-3.34 8 -2.68 8 -2 8 C-1.855625 6.865625 -1.71125 5.73125 -1.5625 4.5625 C-1 1 -1 1 0 0 Z " fill="#1DC201" transform="translate(425,45)"/>
<path d="M0 0 C2.0625 0.4375 2.0625 0.4375 4 1 C3.34 2.65 2.68 4.3 2 6 C0.68 6 -0.64 6 -2 6 C-1.125 1.125 -1.125 1.125 0 0 Z " fill="#E3820B" transform="translate(414,33)"/>
<path d="M0 0 C3.9252025 3.70090521 6.94580156 7.54959656 10 12 C9.01 12.495 9.01 12.495 8 13 C7.34 11.35 6.68 9.7 6 8 C5.01 8 4.02 8 3 8 C0 2.25 0 2.25 0 0 Z " fill="#227300" transform="translate(401,114)"/>
<path d="M0 0 C3.625 -0.1875 3.625 -0.1875 7 0 C7.33 0.66 7.66 1.32 8 2 C7.34 2 6.68 2 6 2 C6.33 3.32 6.66 4.64 7 6 C5.68 6 4.36 6 3 6 C3.33 4.35 3.66 2.7 4 1 C2.02 1.66 0.04 2.32 -2 3 C-1.34 2.01 -0.68 1.02 0 0 Z " fill="#E3903F" transform="translate(248,89)"/>
<path d="M0 0 C0.66 0 1.32 0 2 0 C2.69710731 1.28650706 3.38242876 2.57940665 4.0625 3.875 C4.63677734 4.95394531 4.63677734 4.95394531 5.22265625 6.0546875 C5.47917969 6.69664063 5.73570312 7.33859375 6 8 C5.67 8.66 5.34 9.32 5 10 C0 4.5 0 4.5 0 0 Z " fill="#547E0D" transform="translate(359,110)"/>
<path d="M0 0 C0.66 0.33 1.32 0.66 2 1 C0.66511872 4.59391114 -0.96022723 7.75490696 -3 11 C-3.99 10.67 -4.98 10.34 -6 10 C-4.02 6.7 -2.04 3.4 0 0 Z " fill="#869E1E" transform="translate(402,90)"/>
<path d="M0 0 C4.75481646 0.57634139 7.97048212 2.55068521 12 5 C10 6 10 6 8.0546875 5.44140625 C7.33539063 5.15136719 6.61609375 4.86132812 5.875 4.5625 C5.15054687 4.27503906 4.42609375 3.98757812 3.6796875 3.69140625 C2.84824219 3.34916016 2.84824219 3.34916016 2 3 C2 2.34 2 1.68 2 1 C1.34 0.67 0.68 0.34 0 0 Z " fill="#D28F53" transform="translate(282,85)"/>
<path d="M0 0 C3.28788824 3.11016455 5.83735988 6.01618925 8 10 C6.68 9.34 5.36 8.68 4 8 C4 7.34 4 6.68 4 6 C3.01 5.67 2.02 5.34 1 5 C0.67 3.35 0.34 1.7 0 0 Z " fill="#2C6F01" transform="translate(411,127)"/>
<path d="M0 0 C0.66 0 1.32 0 2 0 C2 0.66 2 1.32 2 2 C2.66 2 3.32 2 4 2 C4 2.66 4 3.32 4 4 C4.99 4.33 5.98 4.66 7 5 C6.67 6.32 6.34 7.64 6 9 C4.99712471 7.68969568 3.99777175 6.37669473 3 5.0625 C2.443125 4.33160156 1.88625 3.60070312 1.3125 2.84765625 C0 1 0 1 0 0 Z " fill="#207800" transform="translate(335,79)"/>
<path d="M0 0 C0.99 0 1.98 0 3 0 C3.6875 2.3125 3.6875 2.3125 4 5 C2.5625 6.8125 2.5625 6.8125 1 8 C-0.35439668 5.29120665 -0.06501451 2.99066732 0 0 Z " fill="#03A803" transform="translate(379,75)"/>
<path d="M0 0 C2.52588702 2.36292656 3.88820837 3.66462511 5 7 C3.35 7.33 1.7 7.66 0 8 C0 5.36 0 2.72 0 0 Z " fill="#A67D27" transform="translate(444,167)"/>
<path d="M0 0 C0.99 0 1.98 0 3 0 C3.33 0.66 3.66 1.32 4 2 C4.99 1.67 5.98 1.34 7 1 C7 1.99 7 2.98 7 4 C4.69 4 2.38 4 0 4 C0 2.68 0 1.36 0 0 Z " fill="#045804" transform="translate(327,167)"/>
<path d="M0 0 C0.33 0 0.66 0 1 0 C1.33 3.96 1.66 7.92 2 12 C0.68 12.33 -0.64 12.66 -2 13 C-1.34 8.71 -0.68 4.42 0 0 Z " fill="#DE9350" transform="translate(184,130)"/>
<path d="M0 0 C4.95 0 9.9 0 15 0 C15 0.33 15 0.66 15 1 C10.71 1 6.42 1 2 1 C2 1.66 2 2.32 2 3 C1.01 2.67 0.02 2.34 -1 2 C-0.67 1.34 -0.34 0.68 0 0 Z " fill="#A57927" transform="translate(313,52)"/>
<path d="M0 0 C0.33 0.66 0.66 1.32 1 2 C0.67 2.99 0.34 3.98 0 5 C-2.64 5.33 -5.28 5.66 -8 6 C-5.33333333 4 -2.66666667 2 0 0 Z " fill="#D58F4B" transform="translate(181,143)"/>
<path d="M0 0 C0.99 0 1.98 0 3 0 C5.25 2.3125 5.25 2.3125 7 5 C6.67 5.99 6.34 6.98 6 8 C4.9970458 6.85675161 3.99770973 5.71032809 3 4.5625 C2.443125 3.92441406 1.88625 3.28632812 1.3125 2.62890625 C0 1 0 1 0 0 Z " fill="#209701" transform="translate(380,83)"/>
<path d="M0 0 C0.66 0.33 1.32 0.66 2 1 C1.6875 3.375 1.6875 3.375 1 6 C0.01 6.66 -0.98 7.32 -2 8 C-2 6.35 -2 4.7 -2 3 C-1.34 3 -0.68 3 0 3 C0 2.01 0 1.02 0 0 Z " fill="#D38E4E" transform="translate(120,73)"/>
<path d="M0 0 C0.66 0.33 1.32 0.66 2 1 C0.68 3.31 -0.64 5.62 -2 8 C-2.5534764 5.92446352 -3 4.15634036 -3 2 C-2.01 1.34 -1.02 0.68 0 0 Z " fill="#205C02" transform="translate(359,164)"/>
<path d="M0 0 C0.66 0 1.32 0 2 0 C2 1.98 2 3.96 2 6 C1.34 6 0.68 6 0 6 C0 6.66 0 7.32 0 8 C-0.66 7.67 -1.32 7.34 -2 7 C-1.34 4.69 -0.68 2.38 0 0 Z " fill="#D89350" transform="translate(133,130)"/>
<path d="M0 0 C2.04119788 1.61594832 4.04072937 3.2856382 6 5 C6 5.66 6 6.32 6 7 C4.68 7 3.36 7 2 7 C1.34 4.69 0.68 2.38 0 0 Z " fill="#DA914E" transform="translate(193,91)"/>
<path d="M0 0 C0.99 0 1.98 0 3 0 C2.34 2.97 1.68 5.94 1 9 C0.67 9 0.34 9 0 9 C0 6.03 0 3.06 0 0 Z " fill="#E39053" transform="translate(307,131)"/>
<path d="M0 0 C1.875 0.625 1.875 0.625 4 2 C5.25 5.125 5.25 5.125 6 8 C1.125 3.375 1.125 3.375 0 0 Z " fill="#1E6B00" transform="translate(368,122)"/>
<path d="M0 0 C0.99 0 1.98 0 3 0 C3.268125 0.804375 3.53625 1.60875 3.8125 2.4375 C4.204375 3.283125 4.59625 4.12875 5 5 C5.99 5.33 6.98 5.66 8 6 C7.34 6.66 6.68 7.32 6 8 C4.02 5.36 2.04 2.72 0 0 Z " fill="#2D7601" transform="translate(328,71)"/>
<path d="M0 0 C1 3 1 3 -0.4375 6.1875 C-1.2109375 7.5796875 -1.2109375 7.5796875 -2 9 C-2.99 8.67 -3.98 8.34 -5 8 C-3.35 5.36 -1.7 2.72 0 0 Z " fill="#929429" transform="translate(382,63)"/>
<path d="" fill="#000000" transform="translate(0,0)"/>
<path d="" fill="#000000" transform="translate(0,0)"/>
<path d="" fill="#000000" transform="translate(0,0)"/>
<path d="" fill="#000000" transform="translate(0,0)"/>
<path d="" fill="#000000" transform="translate(0,0)"/>
<path d="" fill="#000000" transform="translate(0,0)"/>
<path d="" fill="#000000" transform="translate(0,0)"/>
<path d="" fill="#000000" transform="translate(0,0)"/>
<path d="" fill="#000000" transform="translate(0,0)"/>
<path d="" fill="#000000" transform="translate(0,0)"/>
<path d="" fill="#000000" transform="translate(0,0)"/>
<path d="" fill="#000000" transform="translate(0,0)"/>
<path d="" fill="#000000" transform="translate(0,0)"/>
<path d="" fill="#000000" transform="translate(0,0)"/>
<path d="" fill="#000000" transform="translate(0,0)"/>
<path d="" fill="#000000" transform="translate(0,0)"/>
<path d="" fill="#000000" transform="translate(0,0)"/>
<path d="" fill="#000000" transform="translate(0,0)"/>
<path d="" fill="#000000" transform="translate(0,0)"/>
<path d="" fill="#000000" transform="translate(0,0)"/>
<path d="" fill="#000000" transform="translate(0,0)"/>
<path d="" fill="#000000" transform="translate(0,0)"/>
<path d="" fill="#000000" transform="translate(0,0)"/>
<path d="" fill="#000000" transform="translate(0,0)"/>
<path d="" fill="#000000" transform="translate(0,0)"/>
<path d="" fill="#000000" transform="translate(0,0)"/>
<path d="" fill="#000000" transform="translate(0,0)"/>
<path d="" fill="#000000" transform="translate(0,0)"/>
<path d="" fill="#000000" transform="translate(0,0)"/>
<path d="" fill="#000000" transform="translate(0,0)"/>
<path d="" fill="#000000" transform="translate(0,0)"/>
<path d="" fill="#000000" transform="translate(0,0)"/>
<path d="" fill="#000000" transform="translate(0,0)"/>
<path d="" fill="#000000" transform="translate(0,0)"/>
<path d="" fill="#000000" transform="translate(0,0)"/>
<path d="" fill="#000000" transform="translate(0,0)"/>
<path d="" fill="#000000" transform="translate(0,0)"/>
<path d="" fill="#000000" transform="translate(0,0)"/>
<path d="" fill="#000000" transform="translate(0,0)"/>
<path d="" fill="#000000" transform="translate(0,0)"/>
<path d="" fill="#000000" transform="translate(0,0)"/>
<path d="" fill="#000000" transform="translate(0,0)"/>
<path d="" fill="#000000" transform="translate(0,0)"/>
<path d="" fill="#000000" transform="translate(0,0)"/>
<path d="" fill="#000000" transform="translate(0,0)"/>
<path d="" fill="#000000" transform="translate(0,0)"/>
<path d="" fill="#000000" transform="translate(0,0)"/>
<path d="" fill="#000000" transform="translate(0,0)"/>
<path d="" fill="#000000" transform="translate(0,0)"/>
<path d="" fill="#000000" transform="translate(0,0)"/>
<path d="" fill="#000000" transform="translate(0,0)"/>
<path d="" fill="#000000" transform="translate(0,0)"/>
<path d="" fill="#000000" transform="translate(0,0)"/>
<path d="" fill="#000000" transform="translate(0,0)"/>
<path d="" fill="#000000" transform="translate(0,0)"/>
<path d="" fill="#000000" transform="translate(0,0)"/>
<path d="" fill="#000000" transform="translate(0,0)"/>
<path d="" fill="#000000" transform="translate(0,0)"/>
<path d="" fill="#000000" transform="translate(0,0)"/>
<path d="" fill="#000000" transform="translate(0,0)"/>
<path d="" fill="#000000" transform="translate(0,0)"/>
<path d="" fill="#000000" transform="translate(0,0)"/>
<path d="" fill="#000000" transform="translate(0,0)"/>
<path d="" fill="#000000" transform="translate(0,0)"/>
</svg>
